<svg xmlns="http://www.w3.org/2000/svg" xmlns:xlink="http://www.w3.org/1999/xlink" width="1369" height="92.968" viewBox="0 0 1369 92.968"><defs><style>.a {
  fill: none;
}

.b {
  clip-path: url("#a");
}

.c {
  fill: #bcbcbc;
}
</style><clipPath id="a"><rect class="a" width="1369" height="92.968"></rect></clipPath></defs><g class="b"><path class="c" d="M166.376,40.949a5.743,5.743,0,0,1-2.149,3.447,4.855,4.855,0,0,1-2.908.991c-2.4.017-4.8.035-7.2,0a5.578,5.578,0,0,1-5.291-4.764,8.1,8.1,0,0,1-2.266,3.231,5.971,5.971,0,0,1-4.123,1.551c-3.132-.037-6.266-.088-9.4.011A9.315,9.315,0,0,1,125.63,42.2a10.607,10.607,0,0,1,.134-14.3,8.8,8.8,0,0,1,6.177-2.711c3.418-.087,6.844-.118,10.259.015a5.386,5.386,0,0,1,4.8,3.679,5.946,5.946,0,0,1-5.024,8.41,32.868,32.868,0,0,1-6.513-.007,4.248,4.248,0,0,1-3.744-4.619c.026-.425.246-.378.518-.378q3.031,0,6.064,0c.177,0,.355,0,.533,0a.812.812,0,0,0,.886-.8.827.827,0,0,0-.8-.964,28.253,28.253,0,0,0-5.055.052,3.856,3.856,0,0,0-3.128,5.5,4.5,4.5,0,0,0,4.037,3.084c2.924.278,5.859.071,8.788.116,1.555.024,3.11-.014,4.664.015.468.009.592-.122.59-.589-.017-4.26,0-8.52-.022-12.78,0-.533.1-.709.683-.7,2.087.029,4.175.006,6.261-.043.548-.014.6.2.6.656-.014,4.193,0,8.387-.017,12.58,0,.49.091.64.608.636,2.932-.027,5.864-.023,8.8,0,.452,0,.6-.095.594-.581-.025-3.039-.018-6.079-.008-9.119,0-1.241.059-2.483.055-3.724,0-.372.132-.441.464-.437,2.175.027,4.351.058,6.527.041.532,0,.492.266.491.616,0,4.17.009,8.343-.016,12.513,0,.551.134.7.69.7,2.954-.028,5.908-.012,8.862-.015.323,0,.627-.045.584.456a6.676,6.676,0,0,1-2.227,4.932,4.213,4.213,0,0,1-2.694.977c-2.532.021-5.065.033-7.6,0-2.486-.036-4.23-1.537-5.077-4.434" transform="translate(-11.793 -2.409)"></path><path class="c" d="M126.645,66.616a8.885,8.885,0,0,1-2.912,3.564,5.3,5.3,0,0,1-3.168,1.015c-3.554-.032-7.108-.011-10.662,0a8.329,8.329,0,0,1-6.111-2.79,10.633,10.633,0,0,1-1.329-13.588,9.022,9.022,0,0,1,6.693-3.743,65.4,65.4,0,0,1,7.12-.135c.954-.023,1.918.08,2.863-.019,2.979-.316,6.489,3.02,6.012,7.012a5.661,5.661,0,0,1-5.562,5.14,44.483,44.483,0,0,1-6.316-.029,4.273,4.273,0,0,1-3.806-4.458c0-.464.162-.549.578-.545,1.977.02,3.954.012,5.931.013.2,0,.4,0,.6-.014a.878.878,0,0,0,.9-.938.821.821,0,0,0-.921-.837c-1.377-.019-2.754,0-4.131-.01a4.553,4.553,0,0,0-2.056.458,3.681,3.681,0,0,0-2.152,3.473,4.376,4.376,0,0,0,2.294,4.068,7.283,7.283,0,0,0,3.8.77c3.909.03,7.818,0,11.728.018.5,0,.622-.13.619-.628-.024-3.595-.01-7.189-.015-10.784,0-.753-.024-1.507-.061-2.259-.017-.337.071-.458.436-.457,5.287.013,10.574-.027,15.86.025a5.721,5.721,0,0,1,5.585,4.556c.419,3.069-.446,6.139-4.273,7.018-.587.136-.237.385-.109.591,1.52,2.445,3.05,4.886,4.566,7.334a1.439,1.439,0,0,1,.368.813c-2.738,0-5.461,0-8.184,0-.348,0-.431-.259-.571-.476q-2.924-4.517-5.847-9.036c-.047-.073-.1-.143-.17-.243-.212.193-.113.424-.114.618-.007,2.84-.02,5.68.009,8.52.005.513-.147.631-.631.626q-3.164-.035-6.33,0c-.458.005-.547-.146-.54-.566.025-1.361.01-2.722.01-4.084m10.681-10.37H135.26c-1.267,0-1.258,0-1.135,1.295.025.265.116.336.362.335,1.864-.008,3.729,0,5.593-.014a.783.783,0,0,0,.883-.795c0-.564-.35-.823-.909-.82-.91,0-1.82,0-2.73,0" transform="translate(-9.652 -4.883)"></path><path class="c" d="M34.56,66.5c-.66,1.442-1.266,2.764-1.868,4.086-.109.24-.172.458-.541.455-2.2-.022-4.395-.011-6.7-.011.513-1.183,1-2.308,1.49-3.429,2.078-4.713,4.191-9.41,6.223-14.143a4.172,4.172,0,0,1,4.188-2.755c1.022,0,2.044.021,3.065-.01a.812.812,0,0,1,.9.554q3.872,8.693,7.779,17.37c.095.211.194.419.308.666a.887.887,0,0,0,.122-.683c.006-5.746.019-11.492,0-17.238,0-.539.177-.609.642-.6,1.977.022,3.953.014,5.931,0a.9.9,0,0,1,.825.4c2.034,2.658,4.171,5.235,6.309,7.809.164.2.353.376.648.687v-.781c0-2.485,0-4.97-.022-7.455,0-.481.068-.678.627-.668,2.153.04,4.309.03,6.463.007.462-.005.65.056.648.6q-.033,9.551,0,19.1c0,.46-.108.6-.58.589-1.6-.035-3.2-.057-4.8-.021-1.848.042-3.023-1.044-4.141-2.3q-2.148-2.408-4.127-4.956c-.077-.1-.166-.185-.268-.3a1,1,0,0,0-.09.673c-.006,2.107-.012,4.216,0,6.323,0,.4-.053.577-.528.575-5.663-.024-11.327-.01-16.99-.037a6.126,6.126,0,0,1-5.411-4.261c-.015-.041-.034-.079-.108-.247m4.746-2.14-1.872-4.026L35.59,64.363Z" transform="translate(-2.442 -4.864)"></path><path class="c" d="M21.236,40.871c-1.508,2.816-4.063,3.955-7.053,4.334a24.97,24.97,0,0,1-5.844.035A9.663,9.663,0,0,1,.278,37.95a10.74,10.74,0,0,1,2.76-10.069A8.358,8.358,0,0,1,8.49,25.266c3.3-.3,6.612-.069,9.918-.136.367-.006.454.156.453.477-.006,1.619-.015,3.238.01,4.858.008.488-.287.391-.565.391-2.553,0-5.109.068-7.66-.017C7.93,30.748,6.2,32.9,6.707,35.781a3.647,3.647,0,0,0,3.908,3.208c3.217-.073,6.436-.019,9.731-.019a10.714,10.714,0,0,1,1.259-9.761,10.074,10.074,0,0,1,6.037-4.193,10.665,10.665,0,0,1,12.287,5.828,10.631,10.631,0,0,1-18.7,10.028m9.022-1.889a3.744,3.744,0,1,0-3.75-3.772,3.795,3.795,0,0,0,3.75,3.772" transform="translate(0 -2.369)"></path><path class="c" d="M64.452,41.139a7.328,7.328,0,0,1-3.246,3.7,5.181,5.181,0,0,1-2.37.559c-2.31,0-4.62,0-6.93,0a5.675,5.675,0,0,1-5.636-5.667c.069-4.636.028-9.274,0-13.91,0-.539.149-.663.666-.656q3.43.041,6.862,0c.495-.006.629.111.627.617-.023,4.082-.014,8.164-.01,12.246,0,1.055-.111.9.935.9,2.82,0,5.64-.013,8.461.014.53,0,.655-.141.651-.664-.037-4.148-.03-8.3-.063-12.444,0-.518.116-.674.654-.668,3.353.038,6.706.035,10.059.051,4.553.022,8.232,2.593,9.437,6.77,1.466,5.084-.947,10.87-5.98,12.791a9.087,9.087,0,0,1-3.245.618c-3.442.008-6.884,0-10.327.016-.448,0-.563-.133-.556-.554.022-1.239.008-2.48.008-3.72m7.026-6.285h0c0,1.173.005,2.348,0,3.521,0,.292-.009.519.4.5a21.479,21.479,0,0,0,2.851-.126,3.992,3.992,0,0,0,3.26-3.825,3.877,3.877,0,0,0-3.132-3.908,21.606,21.606,0,0,0-2.849-.127c-.476-.033-.543.171-.536.573.021,1.129.007,2.259.007,3.388" transform="translate(-4.439 -2.415)"></path><path class="c" d="M118.133,32.817c0,2.107-.08,4.219.019,6.322a5.885,5.885,0,0,1-4.651,5.9,10.022,10.022,0,0,1-7.65-.881c-.542-.319-1.032-1.026-1.537-1.018-.473.007-.9.766-1.437,1.089a10.4,10.4,0,0,1-6.5,1.113,7.368,7.368,0,0,1-3.913-1.3,5.451,5.451,0,0,1-2.377-4.525c-.022-4.548,0-9.1-.02-13.644,0-.548.136-.711.7-.7,2.042.034,4.086.031,6.13,0,.5-.007.633.138.631.633-.02,3.9.027,7.81-.034,11.714a1.456,1.456,0,0,0,1.889,1.5c.7-.141,1-.538,1-1.337,0-3.9.018-7.81-.016-11.714-.005-.639.183-.762.775-.751,1.954.035,3.909.03,5.863-.005.53-.009.617.181.614.653-.017,3.926,0,7.854-.021,11.78a1.26,1.26,0,0,0,.787,1.379,1.833,1.833,0,0,0,1.869-.3,1.246,1.246,0,0,0,.266-.993c0-2.484-.009-4.97,0-7.454a5.059,5.059,0,0,1,1.342-3.84,4.282,4.282,0,0,1,3.077-1.205c.866-.01,1.733,0,2.6-.048.464-.025.622.109.617.584-.019,2.351-.008,4.7-.008,7.055" transform="translate(-8.641 -2.415)"></path><path class="c" d="M88.824,64.038c-.585.615-1.142,1.208-1.71,1.79a.776.776,0,0,0-.148.624c0,1.331-.021,2.662.005,3.993.009.441-.074.612-.568.606q-3.331-.043-6.662,0c-.474.005-.586-.133-.585-.593q.023-9.55,0-19.1c0-.457.1-.6.582-.595q3.363.039,6.728,0c.434-.005.514.143.51.529-.017,1.588-.007,3.178-.007,4.957,1.186-1.272,2.349-2.336,3.287-3.57a4.455,4.455,0,0,1,4.335-1.947c2.092.188,4.214.042,6.479.042l-8.5,9.2c.822,0,1.514.017,2.206-.006a.734.734,0,0,1,.783.438q3.878,7.149,7.793,14.28c.44.806.435.808-.47.808-2.332,0-4.664-.012-7,.016a.853.853,0,0,1-.871-.517q-2.941-5.272-5.913-10.528c-.075-.132-.168-.255-.283-.427" transform="translate(-7.594 -4.864)"></path><path class="c" d="M21.153,60.311a5.084,5.084,0,0,1,2.691,5.7,5.488,5.488,0,0,1-4.16,4.6,9.28,9.28,0,0,1-2.815.414c-4.353,0-8.706-.01-13.058.011-.506,0-.668-.1-.667-.643q.028-9.517,0-19.034c0-.484.155-.579.6-.578,4.33.016,8.661,0,12.991.018a8.857,8.857,0,0,1,3.739.791,5.057,5.057,0,0,1,1.4,8.061c-.22.217-.456.418-.719.658m-7.889-4.2V56.1H12c-1.242,0-1.325.1-1.192,1.352.028.269.143.334.377.332,1.375-.011,2.75,0,4.125-.029.493-.009.858-.221.846-.8s-.373-.823-.9-.842c-.664-.024-1.331-.006-2-.006m.152,6.915H11.955c-1.2,0-1.2,0-1.132,1.216a.4.4,0,0,1,0,.066c-.033.25.063.356.328.354,1.462-.012,2.923,0,4.384-.019.547-.007.782-.346.753-.873a.708.708,0,0,0-.813-.746c-.687.007-1.373,0-2.059,0" transform="translate(-0.301 -4.872)"></path><path class="c" d="M174.586,71.171h-9.057a1.692,1.692,0,0,1-1.964-1.823c-.043-.6-.018-1.2-.018-1.8q0-7.183,0-14.368a6.466,6.466,0,0,1,.051-.794,1.571,1.571,0,0,1,1.627-1.581c.308-.027.621-.014.932-.014H182.87c.244,0,.488,0,.732.005,1.575.055,2.153.648,2.153,2.219q0,8.048,0,16.1a1.828,1.828,0,0,1-2.042,2.053q-4.562,0-9.123,0m4.99-8.988a2.559,2.559,0,0,0,1.752-2.584,2.388,2.388,0,0,0-2.192-2.295,41.829,41.829,0,0,0-5.714-.126c-.281-.009-.327.146-.326.374,0,.577.033,1.155-.014,1.729-.039.5.171.588.609.577,1.021-.027,2.042,0,3.063-.017.353-.008.457.107.452.455-.018,1.241-.021,2.483,0,3.725.006.379-.108.5-.487.492-1.088-.023-2.176,0-3.264-.014-.295,0-.443.05-.431.4.024.664.013,1.331,0,2-.007.3.071.438.408.433,1.82-.022,3.641,0,5.461-.042A2.319,2.319,0,0,0,181,66.125c.8-1.407.244-3.019-1.427-3.942m-5.809-8.609v0c-.577,0-1.154,0-1.731,0a3.849,3.849,0,0,0-2.338.817,5.286,5.286,0,0,0-1.693,5.686,4.235,4.235,0,0,0,3.634,3.406,34.4,34.4,0,0,0,4.255.076c.292.007.307-.184.307-.4,0-.62-.029-1.243.008-1.861.028-.46-.159-.547-.574-.536-1,.027-2,0-3,.016-.362.007-.505-.078-.5-.474.025-1.2.034-2.395,0-3.591-.014-.455.174-.495.541-.486.976.021,1.954-.008,2.929.016.382.009.57-.051.536-.5a15.106,15.106,0,0,1-.006-1.729c.014-.338-.078-.474-.441-.458-.643.028-1.287.008-1.931.008" transform="translate(-15.69 -4.873)"></path><path class="c" d="M772.113,37.22a3.636,3.636,0,0,0,1.117.128A12.871,12.871,0,0,1,781.5,41.57c.231.253.281.4-.009.668-.688.627-1.342,1.293-1.994,1.958-.172.174-.239.146-.387-.026a9.229,9.229,0,0,0-8.131-3.365,9.361,9.361,0,0,0-8.266,7.435A9.262,9.262,0,0,0,769.949,59.2a9.009,9.009,0,0,0,9.108-3.125c.184-.211.271-.264.492-.037.655.679,1.333,1.336,2.016,1.989.174.166.221.264.033.468a12.536,12.536,0,0,1-10.782,4.339,12.742,12.742,0,0,1-11.524-10.248,10.415,10.415,0,0,0-.245-1.367V48.907a11.713,11.713,0,0,0,.295-1.541A12.885,12.885,0,0,1,770.55,37.35a3.028,3.028,0,0,0,1.041-.13Z" transform="translate(-72.822 -3.571)"></path><path class="c" d="M841.261,56.1l5.507-7.465L854.3,38.419a1.365,1.365,0,0,1,.187-.23.333.333,0,0,1,.564.2,1.963,1.963,0,0,1,.009.335q0,11.538.006,23.074c0,.322-.054.447-.416.435-.894-.03-1.792-.024-2.687,0-.311.007-.39-.08-.389-.389q.015-6.55.006-13.1v-.426l-.077-.019c-.1.131-.207.26-.306.393l-9.568,12.878c-.33.444-.426.442-.762-.011l-9.677-13.029c-.064-.087-.132-.173-.261-.341v.47c0,4.391,0,8.783.009,13.174,0,.344-.1.408-.415.4q-1.362-.031-2.725,0c-.295.006-.371-.075-.37-.37q.015-5.451.006-10.9V38.825c0-.087,0-.174,0-.261,0-.2.026-.379.248-.448s.344.056.464.218q1.211,1.652,2.429,3.3l10.407,14.108c.08.108.165.214.276.36" transform="translate(-79.383 -3.655)"></path><path class="c" d="M803.672,62.895a12.808,12.808,0,1,1,12.856-12.747,12.844,12.844,0,0,1-12.856,12.747m9.374-12.782a9.351,9.351,0,1,0-9.419,9.306,9.332,9.332,0,0,0,9.419-9.306" transform="translate(-75.872 -3.576)"></path><path class="c" d="M868.716,50.134q0-5.842-.007-11.685c0-.306.072-.388.386-.387,3.645.012,7.29,0,10.936.009a7.791,7.791,0,0,1,7.671,5.383,7.692,7.692,0,0,1-6.9,10.069c-2.67.126-5.348.04-8.024.048-.58,0-.58,0-.58.591,0,2.556-.006,5.111.007,7.666,0,.316-.092.391-.4.385-.908-.02-1.816-.023-2.724,0-.324.008-.379-.1-.378-.4q.015-5.842.007-11.685m7.865-.054q1.734,0,3.47,0a4.262,4.262,0,0,0,3.834-1.956,4.023,4.023,0,0,0,.165-4.337,4.137,4.137,0,0,0-3.861-2.221c-2.537-.011-5.074,0-7.61-.009-.288,0-.375.065-.373.364q.019,3.906,0,7.811c0,.271.057.359.346.355,1.343-.016,2.686-.007,4.029-.007" transform="translate(-83.343 -3.652)"></path><path class="c" d="M891.388,62.2c.842-1.6,1.645-3.135,2.451-4.668q5.057-9.613,10.117-19.226a1.448,1.448,0,0,1,.21-.346c.184-.193.438-.121.6.17.323.6.635,1.205.951,1.807L917.2,61.8c.211.4.209.4-.225.4-1.057,0-2.115-.009-3.171.007a.46.46,0,0,1-.483-.294c-.971-1.867-1.957-3.726-2.926-5.593a.494.494,0,0,0-.512-.311q-5.487.014-10.972,0a.491.491,0,0,0-.505.318c-.964,1.856-1.944,3.7-2.909,5.561a.487.487,0,0,1-.505.321c-1.178-.018-2.356-.008-3.6-.008m13.02-17.255c-.07.126-.111.2-.149.269-1.221,2.323-2.437,4.647-3.669,6.964-.155.293-.127.352.209.35,2.425-.012,4.85-.005,7.275-.008.09,0,.193.035.3-.051l-3.962-7.524" transform="translate(-85.519 -3.632)"></path><path class="c" d="M933.425,37.6a10.543,10.543,0,0,1,7.742,3.4c.167.169.109.242-.024.372-.687.665-1.375,1.331-2.046,2.012-.175.178-.261.15-.428-.009a8.085,8.085,0,0,0-3.986-2.205,6.6,6.6,0,0,0-3.708.245,2.69,2.69,0,0,0-1.914,2.376,2.9,2.9,0,0,0,1.424,2.867,7.867,7.867,0,0,0,2.673.871,21.227,21.227,0,0,1,4.73,1.41,7.378,7.378,0,0,1,3.95,3.907,6.657,6.657,0,0,1-3.011,8.3,10.275,10.275,0,0,1-10.615.007,12.2,12.2,0,0,1-3.007-2.418c-.165-.174-.212-.274-.008-.466.679-.638,1.342-1.294,2-1.958.184-.188.262-.147.418.031a7.611,7.611,0,0,0,4.764,2.749,6.411,6.411,0,0,0,5.179-1.211,3.345,3.345,0,0,0,.1-5.1,6.952,6.952,0,0,0-3.02-1.458c-1.44-.373-2.917-.611-4.32-1.121a8.266,8.266,0,0,1-3.268-2.012,5.775,5.775,0,0,1-1.431-4.933c.325-2.766,2.347-4.716,5.316-5.4a10.641,10.641,0,0,1,2.5-.255" transform="translate(-88.749 -3.607)"></path><path class="c" d="M959.128,62.6a10.713,10.713,0,0,1-7.3-3.138c-.272-.254-.521-.532-.784-.8-.095-.095-.155-.162-.021-.291q1.1-1.059,2.183-2.138c.22-.219.274.027.356.12a7.844,7.844,0,0,0,3.374,2.371,6.887,6.887,0,0,0,6.13-.542,3.37,3.37,0,0,0,.183-5.7A8.514,8.514,0,0,0,960,51.169a22.468,22.468,0,0,1-4.641-1.33,6.047,6.047,0,0,1-3.556-3.594,6.176,6.176,0,0,1,4.043-8.072,10.342,10.342,0,0,1,11.022,2.606c.405.388.4.392,0,.783-.612.6-1.234,1.191-1.832,1.8-.187.193-.277.167-.457,0a7.886,7.886,0,0,0-4.392-2.269,6.524,6.524,0,0,0-3.268.313,2.707,2.707,0,0,0-1.928,2.365,2.9,2.9,0,0,0,1.438,2.9,7.772,7.772,0,0,0,2.639.856,19.535,19.535,0,0,1,5.192,1.659,6.944,6.944,0,0,1,3.662,4.2,6.744,6.744,0,0,1-3.02,7.694,10.415,10.415,0,0,1-5.775,1.521" transform="translate(-91.232 -3.604)"></path><path class="c" d="M810,47.8c-.026.128-.131.186-.207.262q-3.181,3.192-6.365,6.38c-.561.562-1.129,1.118-1.679,1.692-.172.179-.269.212-.461.014-.661-.691-1.339-1.364-2.021-2.033-.162-.159-.2-.248-.014-.432q4.074-4.064,8.131-8.142c.086-.086.146-.237.315-.064.729.745,1.471,1.478,2.207,2.216.034.035.065.073.1.108" transform="translate(-76.668 -4.355)"></path><path class="c" d="M1513.929,96.26c-.146.058-.184-.086-.258-.149a1.657,1.657,0,0,0-2.322,2.361,1.7,1.7,0,0,0,2.328.069c.079-.069.11-.2.251-.193v.372c-.118-.018-.175.081-.251.135a1.9,1.9,0,0,1-2.558-2.786,1.915,1.915,0,0,1,2.562-.263c.08.056.165.1.247.155Z" transform="translate(-144.929 -9.156)"></path><path class="c" d="M1311.017,36.409a.769.769,0,0,0,.365-.274q6.9-6.874,13.785-13.756a.916.916,0,0,1,.716-.292q4.944.015,9.89,0a.573.573,0,0,1,.635.4q4.928,11.433,9.879,22.857c.058.134.123.265.222.474.089-.2.155-.334.213-.472q4.817-11.44,9.624-22.884a.514.514,0,0,1,.569-.375q2.464.023,4.927,0a.513.513,0,0,1,.562.386q4.776,11.477,9.569,22.946c.051.121.109.239.188.415.4-.914.769-1.776,1.14-2.64q4.443-10.325,8.878-20.653a.616.616,0,0,1,.673-.456c2.464.021,4.927.011,7.39.011h.44c-.092.226-.162.409-.24.589q-8.287,19.1-16.569,38.21a.489.489,0,0,1-.544.358c-.758-.026-1.518-.029-2.276,0a.53.53,0,0,1-.595-.4q-3.908-9.217-7.839-18.425-1.568-3.682-3.136-7.362c-.049-.113-.1-.224-.182-.4-.376.9-.732,1.742-1.088,2.59q-4.953,11.806-9.9,23.616a.506.506,0,0,1-.573.368c-.759-.019-1.518-.03-2.276,0a.552.552,0,0,1-.618-.417q-5.284-12.252-10.584-24.5l-3.943-9.122c-.042-.1-.089-.194-.154-.335-.5.553-.977,1.074-1.45,1.6q-2.988,3.309-5.979,6.613a.464.464,0,0,0-.1.582q5.289,12.513,10.561,25.033a2.262,2.262,0,0,0,.1.24c.155.272.017.3-.22.3-.411-.012-.821,0-1.231,0-2.09,0-4.181-.005-6.271.007a.472.472,0,0,1-.514-.345q-3.975-9.411-7.957-18.82c-.146-.348-.226-.295-.446-.074q-2.689,2.692-5.4,5.366a.787.787,0,0,0-.255.617c.007,4.276,0,8.552.014,12.829,0,.341-.086.431-.428.429q-3.659-.023-7.317,0c-.319,0-.38-.09-.38-.392q.011-28.639,0-57.28c0-.323.095-.38.393-.378q3.657.019,7.316,0c.361,0,.416.116.416.438q-.011,16.129-.006,32.257Z" transform="translate(-124.998 -0.307)"></path><path class="c" d="M1374.666,87.689c0-3.058.005-6.115-.009-9.173,0-.329.08-.416.411-.411,1.592.019,3.185-.009,4.778.016a6.846,6.846,0,0,1,3.753,1.05,4.805,4.805,0,0,1,2.191,3.794,8.7,8.7,0,0,1-.048,1.969,4.9,4.9,0,0,1-1.916,3.1.522.522,0,0,0-.179.716c1.092,2.7,2.161,5.419,3.235,8.13.163.411.163.411-.295.412-.684,0-1.368-.014-2.051.007a.433.433,0,0,1-.484-.333c-1.058-2.638-2.132-5.27-3.188-7.909a.46.46,0,0,0-.513-.35c-.844.02-1.691.023-2.537,0-.308-.007-.4.076-.4.39.012,2.6,0,5.2.015,7.793,0,.334-.084.422-.412.41-.671-.027-1.343-.023-2.015,0-.289.009-.348-.091-.347-.361q.014-4.624.006-9.249m2.76-4.244v2.271c0,.77,0,.777.783.769a9.184,9.184,0,0,0,2.734-.224,2.724,2.724,0,0,0,2.018-3,2.55,2.55,0,0,0-2.187-2.615,15.267,15.267,0,0,0-3.152-.156c-.245-.007-.193.175-.193.314,0,.881,0,1.762,0,2.643" transform="translate(-131.883 -7.493)"></path><path class="c" d="M1305.67,86.853c2.643-2.873,5.219-5.671,7.787-8.476a.73.73,0,0,1,.608-.269c.991.014,1.983,0,3.064,0-.43.477-.806.9-1.186,1.314-1.652,1.808-3.3,3.619-4.964,5.414a.575.575,0,0,0-.125.716q2.272,5.564,4.521,11.14a1.84,1.84,0,0,0,.084.207c.157.29.012.326-.242.323-.709-.009-1.418-.015-2.126,0a.434.434,0,0,1-.484-.332q-1.814-4.527-3.65-9.043c-.225-.559-.218-.554-.624-.107q-1.2,1.325-2.416,2.64a.89.89,0,0,0-.252.663c.012,1.939,0,3.877.012,5.817,0,.267-.052.369-.344.359-.682-.022-1.368-.02-2.051,0-.292.008-.375-.075-.374-.372.011-3.23.007-6.46.007-9.692,0-2.895,0-5.79-.007-8.685,0-.294.078-.38.372-.372q1.025.033,2.052,0c.286-.008.348.084.347.356-.011,2.634-.006,5.268-.006,7.9Z" transform="translate(-124.999 -7.493)"></path><path class="c" d="M1360.362,87.684c0-3.057.005-6.113-.008-9.17,0-.33.081-.411.411-.41q5.055.019,10.111,0c.31,0,.405.08.391.391-.025.57-.022,1.144,0,1.714.012.291-.07.378-.369.376-2.4-.012-4.8-.006-7.2-.006-.573,0-.573,0-.573.569,0,1.6.009,3.206-.007,4.809,0,.33.07.439.424.437,2.351-.017,4.7,0,7.052-.016.313,0,.4.082.388.392a13.23,13.23,0,0,0,0,1.639c.031.4-.124.457-.477.455-2.326-.015-4.651,0-6.977-.016-.325,0-.418.073-.414.408.018,1.739.015,3.479,0,5.218,0,.281.077.353.354.352,2.549-.011,5.1,0,7.647-.014.314,0,.4.083.389.392-.025.6-.015,1.192,0,1.789,0,.219-.048.3-.287.3q-5.279-.011-10.559,0c-.309,0-.3-.153-.3-.368q0-4.623,0-9.245" transform="translate(-130.511 -7.493)"></path><path class="c" d="M1320.306,87.669c0-3.057,0-6.114-.007-9.171,0-.308.08-.393.391-.392q5.056.018,10.111,0c.3,0,.377.09.367.377-.021.583-.022,1.168,0,1.751.011.282-.077.353-.354.353-2.437-.011-4.875,0-7.312-.015-.366,0-.452.1-.448.454.02,1.641.017,3.281,0,4.921,0,.332.071.444.428.441,2.338-.017,4.676,0,7.014-.016.331,0,.429.085.414.414-.028.57-.022,1.144,0,1.715.009.285-.092.354-.366.353-2.35-.01-4.7,0-7.051-.014-.334,0-.442.075-.439.426.019,1.715.016,3.43,0,5.145,0,.306.077.4.392.4,2.525-.013,5.049,0,7.574-.014.322,0,.435.072.419.41-.029.582-.017,1.168,0,1.751.005.235-.052.325-.308.324q-5.26-.011-10.522,0c-.345,0-.3-.193-.3-.4V87.669" transform="translate(-126.668 -7.493)"></path><path class="c" d="M1406.858,93.779c.574-1.487,1.121-2.9,1.664-4.31q2.147-5.575,4.289-11.153a.361.361,0,0,1,.411-.278,7.47,7.47,0,0,0,.933,0c.314-.021.386.054.262.367-.479,1.211-.937,2.432-1.4,3.649q-2.859,7.5-5.706,15c-.121.32-.3.35-.58.358s-.306-.186-.365-.371q-2.566-8.127-5.134-16.253c-.033-.107-.069-.212-.11-.34a.684.684,0,0,0-.179.393q-2.52,8.1-5.03,16.208c-.06.191-.093.372-.378.362-.269-.01-.445-.033-.561-.337q-3.556-9.341-7.142-18.672c-.115-.3-.069-.39.252-.36a2.891,2.891,0,0,0,.707,0c.4-.063.553.127.689.477q2.9,7.479,5.832,14.948c.034.089.076.175.137.317.391-1.209.766-2.364,1.138-3.52q1.913-5.934,3.816-11.87a.522.522,0,0,1,.617-.446c.659.032.661.008.86.619q1.242,3.8,2.483,7.608,1.185,3.626,2.374,7.251c.031.094.063.187.121.357" transform="translate(-133.141 -7.478)"></path><path class="c" d="M1477.28,80.233v.5q0,8.035.008,16.07c0,.359-.094.494-.455.45-.331-.039-.759.136-.974-.069s-.069-.636-.069-.966q-.008-8.836-.012-17.674c0-.344.076-.425.438-.469a1.824,1.824,0,0,1,1.789.869c2.125,2.661,4.3,5.279,6.46,7.913a1.212,1.212,0,0,1,.09.156c.663-.806,1.286-1.562,1.907-2.32q2.6-3.172,5.2-6.347a.578.578,0,0,1,.534-.257,8.9,8.9,0,0,0,.932,0c.192-.006.28.06.262.256-.007.074,0,.149,0,.223v18.2c0,.484,0,.484-.485.484-1.03,0-1.03,0-1.03-1.02q0-7.755,0-15.511a.824.824,0,0,0-.056-.445c-.169.2-.325.389-.477.576q-3.225,3.986-6.449,7.97c-.312.385-.315.38-.614.011q-3.389-4.188-6.78-8.373c-.044-.055-.1-.1-.213-.227" transform="translate(-141.581 -7.489)"></path><path class="c" d="M1334.6,87.7c0-3.058,0-6.114-.006-9.172,0-.311.052-.437.4-.419.657.031,1.318.024,1.977,0,.3-.01.4.067.4.385-.019,1.218-.008,2.436-.008,3.654q0,6.132-.006,12.266c0,.316.061.42.4.417,2.115-.017,4.229,0,6.344-.015.3,0,.38.08.369.372-.023.6-.016,1.193,0,1.789.005.232-.048.323-.3.322q-4.627-.012-9.254,0c-.338,0-.309-.175-.308-.394q0-4.6,0-9.209" transform="translate(-128.039 -7.493)"></path><path class="c" d="M1347.479,87.7c0-3.058,0-6.114-.006-9.172,0-.309.05-.438.4-.421.657.032,1.318.024,1.976,0,.3-.01.405.066.4.385-.02,1.044-.007,2.088-.007,3.132q0,6.394-.007,12.788c0,.316.062.42.4.418,2.115-.017,4.229,0,6.344-.015.295,0,.381.077.37.372-.022.595-.015,1.192,0,1.789,0,.232-.05.323-.306.322q-4.627-.012-9.254,0c-.335,0-.311-.172-.311-.392q0-4.6,0-9.209" transform="translate(-129.275 -7.493)"></path><path class="c" d="M1471.031,97.239c-.826-.016-.616.123-.923-.618q-1.178-2.838-2.324-5.687a.444.444,0,0,0-.492-.328q-3.862.014-7.724,0a.418.418,0,0,0-.457.316c-.81,2-1.639,4-2.448,6a.424.424,0,0,1-.494.326c-.318-.032-.793.133-.922-.062-.157-.239.163-.6.286-.9q3.7-9.009,7.4-18.011a.444.444,0,0,1,.487-.336c.262.006.416.048.53.326q3.817,9.318,7.662,18.627c.125.3.073.4-.247.357a2.593,2.593,0,0,0-.335,0m-7.6-16.885c-1.214,2.982-2.387,5.866-3.569,8.746-.121.3.045.267.232.267,2.238,0,4.477-.006,6.716,0,.337,0,.287-.113.193-.337q-1.246-3.009-2.478-6.024c-.352-.858-.707-1.715-1.094-2.656" transform="translate(-139.61 -7.477)"></path><path class="c" d="M1507.833,81.086c-.171-.036-.219-.163-.3-.247a5.193,5.193,0,0,0-5.565-1.306,3.5,3.5,0,0,0-2.184,4.692,3.821,3.821,0,0,0,2.025,1.837c.973.471,2.008.794,3.005,1.21a7.6,7.6,0,0,1,2.5,1.518,4.686,4.686,0,0,1,1.318,3.816,5.336,5.336,0,0,1-5.454,4.917,7.778,7.778,0,0,1-4.813-1.539c-.1-.071-.211-.13-.21-.282,0-.505,0-1.01,0-1.578.336.272.616.512.909.733a5.868,5.868,0,0,0,5.1,1.124,3.774,3.774,0,0,0,2.654-4.953,3.576,3.576,0,0,0-1.608-1.843,20.851,20.851,0,0,0-3.2-1.4,8.725,8.725,0,0,1-2.718-1.518,4.6,4.6,0,0,1-.6-5.9,5.494,5.494,0,0,1,5.445-2.455,6.289,6.289,0,0,1,3.213,1.183,1,1,0,0,1,.5.993,8.194,8.194,0,0,0-.008,1" transform="translate(-143.706 -7.471)"></path><path class="c" d="M1424.444,87.64c0-3.068.006-6.138-.008-9.206,0-.334.086-.441.413-.4.343.039.795-.139,1.008.065.234.224.074.683.074,1.037q.008,8.2,0,16.4c0,.539-.064.466.483.467,2.338,0,4.676.006,7.013-.005.307,0,.435.046.424.4-.027.829-.007.83-.847.83q-4.029,0-8.058,0c-.586,0-.5.07-.505-.523q0-4.528,0-9.057" transform="translate(-136.659 -7.483)"></path><path class="c" d="M1437.88,87.606c0-3.058,0-6.115-.005-9.173,0-.3.057-.434.383-.4a5.666,5.666,0,0,0,.822,0c.189-.007.279.056.26.254-.009.1,0,.2,0,.3V95.441c0,.562,0,.562.581.562,2.314,0,4.627.005,6.942-.006.3,0,.4.069.4.387-.018.84,0,.841-.839.841-2.712,0-5.424-.006-8.136.007-.334,0-.414-.09-.412-.417.012-3.069.007-6.139.007-9.21" transform="translate(-137.948 -7.486)"></path><path class="c" d="M1421.243,87.694c0,3.057,0,6.112.007,9.169,0,.312-.086.426-.4.389-.354-.042-.809.15-1.042-.086-.214-.217-.063-.663-.064-1.007q-.005-8.834-.013-17.666c0-.391.11-.5.476-.458a2.87,2.87,0,0,0,.671,0c.309-.035.366.1.365.38-.009,3.093-.005,6.186-.005,9.28" transform="translate(-136.204 -7.486)"></path><path class="c" d="M1452.632,87.657c0,3.043,0,6.087.006,9.13,0,.325-.062.486-.424.439-.329-.043-.754.135-.972-.072s-.071-.636-.072-.966q-.007-8.851-.011-17.7c0-.349.071-.505.444-.454.328.046.754-.139.967.08.2.2.059.617.059.937q.007,4.3,0,8.608" transform="translate(-139.219 -7.484)"></path><path class="c" d="M1512.485,96.414c.738.007.978.387.645.994a.371.371,0,0,0,0,.35c.067.174.139.344.2.518.027.073.111.166-.022.214a.177.177,0,0,1-.244-.1c-.085-.206-.184-.408-.251-.619a.26.26,0,0,0-.33-.212c-.194.033-.116.19-.124.3-.013.173,0,.347-.008.521,0,.089-.055.129-.145.129s-.144-.042-.144-.131c0-.608-.025-1.217.013-1.822.015-.257.29-.072.408-.135m-.128.573c.029.127-.083.344.2.329.213-.011.4-.067.4-.326s-.171-.32-.389-.335c-.273-.019-.2.181-.21.332" transform="translate(-145.065 -9.249)"></path><path class="c" d="M1228.2,90.861c-2.314-.013-4.63-.072-6.943-.016-.956.023-1.272-.182-1.268-1.22.042-11.714.01-23.429.055-35.143,0-1.062-.268-1.386-1.307-1.275a27.17,27.17,0,0,1-2.78.019,19.65,19.65,0,0,1,1.164,4.736,14.834,14.834,0,0,1-2.665,9.724,33.773,33.773,0,0,1-4.981,5.847c-2.973,2.9-5.865,5.889-8.8,8.849.264.274.607.127.906.127,4.961.012,9.924.036,14.885-.017.935-.01,1.129.259,1.1,1.137-.069,2.131-.043,4.266-.011,6.4.009.59-.125.807-.768.806q-13.69-.031-27.38,0c-.717,0-.826-.253-.816-.876.034-2.06.037-4.122,0-6.182a1.78,1.78,0,0,1,.614-1.4q8.2-8.156,16.363-16.337a9.761,9.761,0,0,0,3.081-5.939,6.513,6.513,0,0,0-5.358-7.364,6.608,6.608,0,0,0-7.45,5.158,11.439,11.439,0,0,0-.3,2.14c-.031.541-.185.756-.765.748-2.064-.031-4.128-.016-6.193-.009-.4,0-.64-.014-.683-.551-.519-6.469,3.632-12.774,9.644-14.471a15.963,15.963,0,0,1,16.406,4.389V46.664c0-1.754,0-1.748,1.772-1.755q6.239-.022,12.48-.052Z" transform="translate(-113.962 -4.304)"></path><path class="c" d="M1098.9,27.6c0-1.032.026-1.9-.01-2.766-.022-.532.187-.683.693-.676,1.666.023,3.332.025,5,0,.521-.008.7.162.693.681a4.745,4.745,0,0,0,.126,1.822,8.943,8.943,0,0,1,7.937-2.318,10.19,10.19,0,0,1,6.79,4.817c0-1.341.037-2.682-.015-4.021-.027-.72.128-1,.932-.992,2.4.028,2.4-.011,2.4-2.366,0-1.41.058-2.824-.021-4.23-.049-.859.265-1.028,1.043-.994,1.374.061,2.755.062,4.128,0,.822-.037,1.141.152,1.1,1.055-.077,1.878.018,3.762-.042,5.64-.025.785.23.953.969.935,2.028-.052,4.057.015,6.085-.036.736-.018.9.221.893.918-.029,4.665-.024,9.33-.011,13.995a5.223,5.223,0,0,0,3.52,5.186,5.107,5.107,0,0,0,6.45-4.256c.166-1.794.084-3.612.09-5.419.011-3.181.018-6.365-.01-9.546-.005-.638.133-.9.837-.875,1.484.054,2.971.042,4.454,0,.588-.015.723.193.721.745q-.022,11.988.005,23.975c0,.675-.275.756-.832.744-1.34-.03-2.686-.085-4.019.015-1,.075-1.312-.277-1.16-1.205a3.7,3.7,0,0,0,0-.608c-.368-.238-.509.069-.687.193a9.358,9.358,0,0,1-9.948.981,9,9,0,0,1-5.268-8.445q-.133-4.608-.093-9.221c.007-.873-.313-.972-1.063-.986-.776-.014-.943.218-.939.966.034,5.749,0,11.5.04,17.249.006.872-.24,1.11-1.088,1.07-1.408-.069-2.826-.064-4.236,0-.787.035-.948-.243-.944-.979.029-5.749,0-11.5.039-17.249.006-.868-.236-1.133-1.07-1.039a18.124,18.124,0,0,1-1.919.014c.759,2.288.521,4.54.533,6.772.024,3.869-.007,7.739.021,11.608,0,.639-.123.9-.826.871-1.411-.055-2.827-.057-4.237,0-.707.03-.825-.229-.822-.866q.037-7.05,0-14.1a4.7,4.7,0,0,0-3.237-4.539,4.99,4.99,0,0,0-5.5,1.5,5.321,5.321,0,0,0-1.153,3.631c.009,4.448-.016,8.9.022,13.344.007.79-.16,1.08-1.006,1.035-1.409-.076-2.826-.064-4.237,0-.77.033-.961-.213-.956-.966.034-4.629.017-9.258.017-13.886V33.532l-12.088,10.344c2.64,1.594,6.6.7,10-2.3a43.4,43.4,0,0,0,.043,5.038c.193,1.6-.584,2.278-1.868,2.789a13.335,13.335,0,0,1-10.049.124c-.371-.141-.673-.4-1.107.112a22.176,22.176,0,0,1-11.383,6.958,25.23,25.23,0,1,1-5.8-49.468c9.409.543,16.542,4.923,20.969,13.386.1.191.226.368.338.553.09.151.177.3.372.641h-1.993q-3.641,0-7.281,0a1.269,1.269,0,0,1-1.134-.424c-4.142-4.825-9.412-6.841-15.625-5.532-6.433,1.356-10.664,5.444-12.624,11.7a16.719,16.719,0,0,0,7.633,19.156,16.4,16.4,0,0,0,19.966-2.585,1.184,1.184,0,0,0,.378-1.556A13.058,13.058,0,0,1,1082.3,26.49a12.887,12.887,0,0,1,16.209.847c.073.062.161.109.385.259m-6,2.933a7.4,7.4,0,0,0-8.341,1.511c-2,1.991-2.75,5.08-1.722,7.21l10.063-8.721" transform="translate(-99.821 -0.68)"></path><path class="c" d="M1170.676,58.956c1.293-1.874,2.455-3.554,3.614-5.238,1.023-1.488,2.436-2.857,2.951-4.5s.137-3.579.14-5.385c0-3.58-.032-7.16.023-10.739.015-1.013-.325-1-1.031-.615a3.816,3.816,0,0,0-2.191,3.576c.021,4.773-.016,9.546.029,14.319.008.868-.236,1.108-1.081,1.062a35.037,35.037,0,0,0-3.91,0c-.833.047-1.018-.223-1.014-1.026.034-6.291.019-12.583.019-18.874,0-1.591.025-3.183-.012-4.773-.015-.608.16-.824.792-.8,1.266.045,2.538.07,3.8-.005.908-.053,1.4.138,1.193,1.153a4.115,4.115,0,0,0,0,.6c2.823-2.649,6.156-1.472,9.248-1.725.692-.057.464.513.466.849.013,3.977.008,7.955.008,11.932V40.1c.359-.509.555-.786.75-1.063,2.859-4.085,5.73-8.162,8.561-12.265a1.658,1.658,0,0,1,1.593-.818c1.985.05,3.973.017,5.944.017.2.391-.107.578-.251.789Q1189.541,42.5,1178.77,58.241a1.47,1.47,0,0,1-1.412.73c-2.153-.038-4.307-.014-6.682-.014" transform="translate(-112.076 -2.488)"></path><path class="c" d="M1085.05,94.751q-21.623,0-43.246.019c-.95,0-1.423-.177-1.275-1.23.135-.952-.408-2.184.233-2.808.591-.575,1.8-.176,2.732-.176q42.429-.014,84.861-.007c1.425,0,1.425,0,1.426,1.372,0,2.83,0,2.83-2.789,2.83Z" transform="translate(-99.819 -8.675)"></path><path class="c" d="M1173.341,80.222c0,2.335,0,2.342-2.293,1.773q-18.89-4.7-37.776-9.411a3.362,3.362,0,0,0-1.7,0q-19.352,4.858-38.71,9.69c-1.225.306-1.236.307-1.225-1,.01-1.044-.314-2.325.174-3.068.532-.811,1.953-.706,2.991-.968q18.347-4.631,36.7-9.236a3.6,3.6,0,0,1,1.815-.015q19.458,4.868,38.925,9.706c.848.21,1.272.532,1.11,1.444a6.357,6.357,0,0,0-.01,1.083" transform="translate(-104.721 -6.512)"></path><path class="c" d="M1166.615,88.545c0,1.515-.025,3.031.011,4.546.016.656-.1,1.023-.876.95-1.21-.114-2.8.5-3.529-.265-.589-.616-.186-2.191-.192-3.34-.013-2.2.023-4.4-.019-6.6-.014-.726.227-.939.927-.9a22.189,22.189,0,0,0,2.708,0c.744-.047,1.015.18.987.956-.057,1.55-.017,3.1-.017,4.654" transform="translate(-111.471 -7.956)"></path><path class="c" d="M613.725,36.4a18.2,18.2,0,1,1,18.217-18.764A18.247,18.247,0,0,1,613.725,36.4m17.21-18.19a17.187,17.187,0,1,0-17.309,17.16,17.217,17.217,0,0,0,17.309-17.16" transform="translate(-57.135 0)"></path><path class="c" d="M643.079,74.662c-.268.777-.516,1.488-.758,2.2q-1.572,4.612-3.137,9.227a.316.316,0,0,1-.373.254c-.859-.031-.645.147-.875-.664-1.158-4.079-2.32-8.157-3.445-12.246A2.173,2.173,0,0,0,632.6,71.7c-.095-.016-.263.042-.276-.11a3.263,3.263,0,0,1,.028-.664c0-.022.157-.036.241-.036,1.891,0,3.783,0,5.674,0,.2,0,.361.021.3.274-.045.2.184.519-.276.534a5.318,5.318,0,0,0-1.324.2.425.425,0,0,0-.353.576c.311,1.393.747,2.752,1.135,4.123q.787,2.773,1.579,5.546c.013.044.031.088.08.226.214-.62.4-1.157.585-1.7,1.022-3.045,2.049-6.088,3.053-9.139a.5.5,0,0,1,.6-.419c.783.041.578-.127.825.612q1.766,5.271,3.509,10.549c.032.094.066.186.128.36.259-.9.5-1.725.735-2.551.624-2.2,1.267-4.386,1.787-6.609.023-.1.038-.194.053-.293.128-.842-.05-1.12-.88-1.324a5.205,5.205,0,0,0-.917-.155c-.49-.03-.21-.382-.258-.584-.061-.259.152-.221.31-.221q2.464,0,4.927,0c.125,0,.363-.08.307.174-.048.214.241.548-.238.638a2.518,2.518,0,0,0-2.092,1.913c-1.238,4.119-2.52,8.224-3.783,12.336-.072.237-.128.454-.457.392-.3-.057-.651.15-.817-.37-1.173-3.661-2.382-7.309-3.581-10.962-.03-.091-.066-.181-.128-.348" transform="translate(-60.663 -6.8)"></path><path class="c" d="M554.378,78.687c-1.082,0-2.164.007-3.247-.005-.241,0-.311.06-.309.306.011,1.654,0,3.308.007,4.961a1.089,1.089,0,0,0,.979,1.24,4.044,4.044,0,0,0,.73.14c.463.033.233.376.279.589.055.257-.131.233-.3.233q-2.873,0-5.746,0c-.2,0-.357-.016-.3-.272.044-.2-.167-.533.279-.546a6.759,6.759,0,0,0,.852-.085.971.971,0,0,0,.9-.932,4.376,4.376,0,0,0,.018-.522q0-5.148,0-10.3c0-1.122-.216-1.4-1.313-1.691-.083-.023-.167-.047-.252-.063-.525-.106-.517-.1-.493-.628.008-.175.061-.237.239-.237q2.929.007,5.859,0c.193,0,.306.067.247.252s.215.5-.211.551a8.177,8.177,0,0,0-.806.143c-.732.161-.96.433-.965,1.186-.009,1.268,0,2.537,0,3.805,0,.284-.1.661.047.829.171.2.56.063.853.064,1.965.007,3.931,0,5.9.011.281,0,.352-.071.349-.349-.014-1.406,0-2.811-.008-4.217a1.09,1.09,0,0,0-.84-1.206,3.913,3.913,0,0,0-.932-.249c-.479-.059-.222-.411-.257-.629-.042-.278.207-.184.342-.184q2.817-.009,5.634,0c.147,0,.406-.094.353.212-.036.213.218.568-.282.6a6,6,0,0,0-.984.2.83.83,0,0,0-.68.786c-.028.271-.035.545-.036.818,0,3.345.007,6.691-.005,10.036,0,1.106.045,1.522,1.529,1.781.443.077.568.272.469.711-.034.156-.134.12-.223.12-1.965,0-3.931,0-5.9.005-.175,0-.275-.054-.226-.23.054-.2-.183-.51.2-.576.293-.05.594-.051.889-.091a.952.952,0,0,0,.94-1.009c.016-1.778,0-3.557.013-5.335,0-.267-.153-.227-.311-.227h-3.283" transform="translate(-52.427 -6.8)"></path><path class="c" d="M606.423,78.688c-1.07,0-2.14.014-3.209-.008-.307-.006-.359.094-.357.372.013,1.629,0,3.259.006,4.888a1.1,1.1,0,0,0,.972,1.249c.192.051.385.1.581.131a.508.508,0,0,1,.448.729c-.062.178-.209.1-.315.1-1.692.005-3.384,0-5.076,0-.249,0-.5-.009-.746,0-.166.007-.2-.058-.211-.214-.03-.577-.036-.577.559-.616l.075-.005c1.145-.1,1.4-.371,1.4-1.512V73.248a1.15,1.15,0,0,0-.935-1.33c-.292-.1-.6-.155-.9-.231-.391-.1-.135-.4-.185-.608s.124-.194.261-.194q2.894,0,5.786,0c.184,0,.348.017.286.25-.052.193.209.52-.248.558a5.928,5.928,0,0,0-.948.189.87.87,0,0,0-.788.938c-.023,1.567-.008,3.134-.016,4.7,0,.176.074.2.222.2q3.359-.005,6.718,0c.2,0,.22-.084.219-.247,0-1.467,0-2.935-.006-4.4a1.093,1.093,0,0,0-.756-1.088,6.722,6.722,0,0,0-1.076-.3c-.4-.084-.15-.4-.2-.6s.116-.2.26-.2q2.911,0,5.823,0c.188,0,.311.055.254.249s.2.492-.208.554c-.344.053-.686.118-1.023.2a.867.867,0,0,0-.747.891c-.009.1-.008.2-.008.3q0,5.411,0,10.822c0,.808.236,1.107,1.031,1.308.168.043.337.085.508.113.448.073.543.228.454.691-.043.228-.207.137-.319.137-1.667.006-3.334,0-5,0-.249,0-.5-.011-.746,0-.194.011-.329-.029-.279-.255.045-.2-.179-.535.263-.561.272-.015.545-.042.815-.08a.979.979,0,0,0,.953-1.046c.016-1.766,0-3.532.012-5.3,0-.269-.156-.226-.314-.226h-3.284" transform="translate(-57.419 -6.8)"></path><path class="c" d="M633.5,56.52c-1.069,0-2.14.01-3.208-.006-.269,0-.358.048-.355.339.016,1.579,0,3.159.009,4.738,0,.952.254,1.258,1.183,1.462a3.952,3.952,0,0,0,.585.106c.212.014.258.108.25.3-.022.609.061.49-.49.492q-2.761.008-5.522,0c-.15,0-.4.09-.347-.217.034-.223-.183-.581.308-.587a5.143,5.143,0,0,0,.887-.1.947.947,0,0,0,.831-.953c.012-.161.01-.323.01-.485V51.241c0-1.034-.192-1.294-1.19-1.591a2.8,2.8,0,0,0-.507-.112c-.246-.024-.343-.106-.358-.386-.022-.391.112-.459.474-.456,1.841.019,3.681.006,5.522.013.152,0,.412-.118.378.223-.025.25.142.6-.35.592a2.7,2.7,0,0,0-.55.09c-.883.168-1.107.423-1.114,1.334-.01,1.219-.006,2.437,0,3.656,0,.295-.128.679.055.861s.566.053.861.054c1.965,0,3.931-.005,5.9.011.3,0,.361-.093.358-.373-.013-1.355-.005-2.71-.007-4.066a1.184,1.184,0,0,0-.987-1.371,4.232,4.232,0,0,0-.794-.192c-.447-.055-.23-.386-.268-.6-.048-.264.156-.221.313-.221q2.855,0,5.709,0c.151,0,.37-.056.317.212-.042.211.2.549-.265.594a6.311,6.311,0,0,0-.95.181.881.881,0,0,0-.754.891,5.007,5.007,0,0,0-.016.522q0,5.167,0,10.334c0,1.157.194,1.4,1.32,1.645.109.024.221.036.331.054a.538.538,0,0,1,.324.75c-.06.094-.155.064-.236.064q-2.929,0-5.858,0c-.169,0-.284-.049-.232-.227s-.194-.506.2-.564c.283-.041.571-.044.852-.093a1.017,1.017,0,0,0,.991-1.165c.009-.92,0-1.841,0-2.76,0-.784-.01-1.568.005-2.351.005-.237-.071-.287-.295-.285-1.107.011-2.214,0-3.321.005" transform="translate(-60.018 -4.671)"></path><path class="c" d="M660.3,48.718c1.182,0,2.363-.014,3.545.005a5.746,5.746,0,0,1,2.068.423,3.17,3.17,0,0,1,2.187,2.6,3.639,3.639,0,0,1-1.347,3.619,6.859,6.859,0,0,1-2.059,1.013c-.132.043-.285.047-.127.252,1.37,1.768,2.614,3.63,4.03,5.361a3.036,3.036,0,0,0,2.141,1.151.493.493,0,0,1,.407.724c-.048.112-.136.092-.218.092-1.244,0-2.487,0-3.731.005-.213,0-.269-.139-.354-.271-1.2-1.873-2.453-3.709-3.8-5.481l-.2-.266c-.758-.979-.758-.975-2-.881-.155.012-.218.049-.217.213.007,1.591-.008,3.183.018,4.774.01.615.293.887.9,1,.317.056.638.095.959.128.441.047.178.377.229.572.06.234-.13.212-.28.212h-5.9c-.149,0-.34.023-.282-.211.049-.2-.208-.531.223-.585.307-.039.618-.063.924-.118a.958.958,0,0,0,.873-.956,3.2,3.2,0,0,0,.011-.335q0-5.427,0-10.855c0-.8-.174-1.035-.948-1.229a8.241,8.241,0,0,0-.841-.154c-.448-.062-.2-.4-.243-.614-.049-.248.16-.193.3-.194q1.866,0,3.731,0Zm.324,4.122c0,.994.006,1.987-.005,2.981,0,.224.052.307.287.293.334-.021.671-.005,1.005-.005a3.293,3.293,0,0,0,3.56-3.368,2.77,2.77,0,0,0-2.855-3.126c-.558-.021-1.118.006-1.676-.018-.273-.012-.325.088-.321.337.013.969.005,1.937,0,2.907" transform="translate(-62.959 -4.673)"></path><path class="c" d="M583.425,56.459c1.376,1.844,2.721,3.645,4.067,5.445a1.3,1.3,0,0,0,.1.111,3.168,3.168,0,0,0,2.2,1.129c.492.022.306.369.327.611.029.316-.226.2-.364.2-1.132.009-2.265-.005-3.4.012a.575.575,0,0,1-.564-.309q-2.067-3.283-4.446-6.347a.521.521,0,0,0-.491-.247c-.335.019-.672.014-1.007,0-.189-.007-.26.045-.259.248.007,1.529-.01,3.059.011,4.588.01.77.275,1.038,1.033,1.163.281.046.565.09.85.11.18.012.256.053.258.258,0,.528.017.528-.5.528q-2.818,0-5.635,0c-.144,0-.4.1-.347-.211.036-.221-.193-.58.3-.595a5.862,5.862,0,0,0,.85-.1.962.962,0,0,0,.874-.957c.018-.222.026-.446.026-.669q0-5.093,0-10.185c0-1.249-.131-1.408-1.361-1.654a2.224,2.224,0,0,0-.369-.053c-.237-.009-.32-.093-.337-.356-.025-.4.114-.477.49-.474,2.375.022,4.751.009,7.127.026a5.517,5.517,0,0,1,1.894.363,3.234,3.234,0,0,1,2.352,2.756,3.625,3.625,0,0,1-1.626,3.71,8.434,8.434,0,0,1-2.046.906m-3.834-3.609c0,.994,0,1.989,0,2.984,0,.108-.062.276.146.27a7.484,7.484,0,0,0,2.619-.225,3.453,3.453,0,0,0,2.054-3.895,2.629,2.629,0,0,0-2.242-2.313,17.52,17.52,0,0,0-2.232-.074c-.274-.015-.362.055-.355.344.02.969.007,1.939.007,2.909" transform="translate(-55.187 -4.672)"></path><path class="c" d="M550.714,55.735a11.92,11.92,0,0,1,2.226.737,3.559,3.559,0,0,1,2.175,3.21,3.683,3.683,0,0,1-1.942,3.447,5.9,5.9,0,0,1-3.091.826q-3.507.01-7.015,0c-.143,0-.4.108-.349-.209.035-.223-.19-.578.293-.6a4.128,4.128,0,0,0,1.026-.174.92.92,0,0,0,.713-.815,4.755,4.755,0,0,0,.039-.519q0-5.111,0-10.222c0-1.32-.259-1.632-1.55-1.868-.427-.078-.567-.314-.454-.73.048-.175.175-.107.269-.108.8-.006,1.592,0,2.388,0,1.642,0,3.284-.017,4.925.022a4.461,4.461,0,0,1,2.9,1.024,3.215,3.215,0,0,1-.125,4.83,5.539,5.539,0,0,1-2.145,1.074l-.28.079m-2.324.633c-.334,0-.67.012-1,0-.248-.012-.313.084-.31.325.013.932,0,1.863,0,2.8,0,.708-.005,1.416,0,2.125a1.251,1.251,0,0,0,1.066,1.362,3.735,3.735,0,0,0,.88.13,2.96,2.96,0,0,0,3.294-2.434,5.234,5.234,0,0,0,.106-1.445,2.793,2.793,0,0,0-1.569-2.483,4.568,4.568,0,0,0-2.47-.372m-1.309-3.845c0,.869.01,1.739-.006,2.607,0,.269.083.335.338.323.484-.024.97.008,1.453-.022a2.666,2.666,0,0,0,2.409-1.353,3.8,3.8,0,0,0,.337-2.389,2.257,2.257,0,0,0-2.153-2.087,15.975,15.975,0,0,0-2.08-.006c-.261,0-.306.092-.3.321.011.869,0,1.739.005,2.607" transform="translate(-52.066 -4.672)"></path><path class="c" d="M596.529,63.957h-2.873c-.161,0-.359.033-.306-.228.043-.21-.19-.56.28-.575a5.623,5.623,0,0,0,.777-.086,1.007,1.007,0,0,0,.941-1.1c.009-.372,0-.746,0-1.119V51.117c0-.872-.194-1.149-1.017-1.415a5.821,5.821,0,0,0-.721-.174c-.183-.033-.274-.092-.272-.306,0-.516-.012-.515.514-.515q2.743,0,5.486,0c.146,0,.392-.1.351.212-.031.229.169.569-.3.6a5.285,5.285,0,0,0-.913.169.894.894,0,0,0-.8.969c-.014,1.729-.005,3.457,0,5.186,0,.068-.035.158.052.2.127.06.21-.033.294-.106a36.743,36.743,0,0,0,2.746-2.574,19.56,19.56,0,0,0,1.95-2.35,2.422,2.422,0,0,0,.352-.774.407.407,0,0,0-.3-.544,2.52,2.52,0,0,0-.946-.185c-.472,0-.272-.336-.309-.552-.047-.272.136-.256.321-.255q2.537,0,5.075,0c.165,0,.384-.057.326.238-.043.212.179.555-.287.573a4.024,4.024,0,0,0-1.2.246,2.741,2.741,0,0,0-1.161.775c-1.42,1.6-2.789,3.241-4.355,4.7-.161.15-.139.231-.007.378,1.7,1.885,3.256,3.887,4.846,5.862a3.971,3.971,0,0,0,2.825,1.689c.44.033.176.373.231.57.063.227-.11.22-.269.219-1.256,0-2.512-.006-3.768,0a.434.434,0,0,1-.416-.233,53.972,53.972,0,0,0-5.524-6.975c-.042-.046-.089-.088-.13-.134a.255.255,0,0,0-.268-.09c-.137.041-.08.166-.08.254,0,1.7-.008,3.407,0,5.111a1.012,1.012,0,0,0,.785,1.049,5.494,5.494,0,0,0,.909.194c.257.031.333.118.346.391.019.374-.1.448-.455.438-.908-.026-1.816-.009-2.724-.009" transform="translate(-56.923 -4.672)"></path><path class="c" d="M564.771,63.957q-2.986,0-5.971,0c-.148,0-.4.095-.356-.212.03-.224-.18-.576.306-.593a4.774,4.774,0,0,0,1.1-.161.918.918,0,0,0,.73-.837,3.87,3.87,0,0,0,.02-.41q0-5.335,0-10.672c0-.845-.183-1.1-.984-1.351a7.035,7.035,0,0,0-.8-.18.537.537,0,0,1-.367-.76c.082-.137.226-.071.34-.071q2.948-.007,5.9,0c1.741,0,3.483.006,5.225-.006.276,0,.359.061.354.347-.019.994,0,1.99-.012,2.984,0,.132.1.387-.175.346-.242-.035-.569.216-.722-.219a5.551,5.551,0,0,0-1.34-2.035,2.5,2.5,0,0,0-1.916-.539c-.969-.024-1.94,0-2.91-.011-.213,0-.277.071-.276.278q.011,2.742,0,5.485c0,.181.03.269.24.264.646-.014,1.294,0,1.94-.013a1.718,1.718,0,0,0,1.7-1.212,6.7,6.7,0,0,0,.244-.78c.117-.475.26-.563.759-.478.231.04.142.2.142.315.006,1.493,0,2.985,0,4.478,0,.311-.013.622,0,.932.013.221-.075.268-.279.269-.517,0-.513.012-.622-.5a5.923,5.923,0,0,0-.176-.646,1.793,1.793,0,0,0-1.952-1.441c-.571-.014-1.145.006-1.716,0-.2,0-.291.037-.287.262.022,1.641-.041,3.284.034,4.924.039.848.346,1.212,1.193,1.286a14.461,14.461,0,0,0,3.975-.086,1.612,1.612,0,0,0,1.06-.69,12.4,12.4,0,0,0,1.333-2.486.747.747,0,0,1,.838-.259c.074.055.044.136.04.206-.085,1.352-.179,2.7-.253,4.054-.015.293-.2.226-.361.227q-3,0-6.008,0" transform="translate(-53.572 -4.671)"></path><path class="c" d="M680.616,63.958h-6.008c-.165,0-.382.056-.334-.238.035-.217-.162-.548.293-.566a7.994,7.994,0,0,0,.925-.112.986.986,0,0,0,.952-1.008c.019-.2.015-.4.015-.6V51.176c0-1-.193-1.249-1.177-1.5a6.658,6.658,0,0,0-.729-.146c-.2-.03-.3-.093-.287-.327.027-.6-.054-.49.5-.491,3.657,0,7.315,0,10.973-.009.306,0,.4.07.39.386-.022.994,0,1.99-.012,2.984,0,.116.081.335-.138.307-.25-.03-.6.205-.744-.176a5.817,5.817,0,0,0-1.333-2.042,1.809,1.809,0,0,0-1.23-.542c-1.219-.066-2.437-.022-3.656-.041-.224,0-.266.087-.265.287q.008,2.724,0,5.448c0,.234.069.3.3.291.621-.014,1.244-.005,1.866-.009a1.737,1.737,0,0,0,1.752-1.245c.106-.29.174-.594.259-.891.032-.113-.021-.3.128-.317a2.962,2.962,0,0,1,.7.007c.072.007.052.127.052.2,0,1.841,0,3.681,0,5.522,0,.213-.09.239-.268.242-.53.011-.528.017-.633-.485-.028-.133-.066-.264-.1-.4-.391-1.342-.879-1.707-2.275-1.708-.51,0-1.02,0-1.53,0-.164,0-.252.033-.249.225.029,1.665-.06,3.332.057,5,.059.833.353,1.181,1.189,1.251a14.742,14.742,0,0,0,3.939-.08,1.7,1.7,0,0,0,1.142-.756,12.857,12.857,0,0,0,1.288-2.428.752.752,0,0,1,.839-.257c.08.063.049.163.044.245-.084,1.327-.177,2.653-.251,3.98-.016.283-.176.265-.372.265q-3,0-6.008,0" transform="translate(-64.688 -4.672)"></path><path class="c" d="M611.665,61.306c0-.769.01-1.54-.005-2.309-.005-.246.067-.315.312-.309.567.011.563,0,.74.553a6.36,6.36,0,0,0,1.969,3.18,3.865,3.865,0,0,0,3.687.688A2.434,2.434,0,0,0,620,60.242a3.1,3.1,0,0,0-2.055-2.53c-1.058-.425-2.143-.781-3.18-1.262a4.345,4.345,0,0,1-2.2-1.88,4.14,4.14,0,0,1,2.256-5.887,5.426,5.426,0,0,1,4.929.5c.285.165.427.155.577-.151a.862.862,0,0,1,1-.363c.139.05.1.155.1.244q.029,1.435.051,2.87c.009.571.006,1.144.032,1.714.009.206-.057.271-.247.245a.253.253,0,0,0-.037,0c-.6.014-.593.012-.768-.558a8.154,8.154,0,0,0-1.109-2.5,3.2,3.2,0,0,0-3.144-1.38,2.191,2.191,0,0,0-1.992,1.614,2.532,2.532,0,0,0,.766,2.683,6.872,6.872,0,0,0,2.3,1.2,26.357,26.357,0,0,1,2.758,1.2c2.933,1.534,2.6,5.476.45,7.082a6.042,6.042,0,0,1-5.555.85,6.313,6.313,0,0,1-1.511-.62c-.224-.132-.358-.114-.443.134a.732.732,0,0,1-.891.513c-.231-.024-.294-.085-.291-.3.01-.783,0-1.565,0-2.347h-.137" transform="translate(-58.682 -4.634)"></path><path class="c" d="M577.692,86.13q-1.437,0-2.874,0c-.162,0-.359.03-.3-.23.048-.209-.2-.563.273-.582a4.773,4.773,0,0,0,1.277-.238.461.461,0,0,0,.351-.656c-.411-1.143-.836-2.281-1.251-3.423-.055-.15-.16-.161-.293-.161q-2.425,0-4.851,0c-.145,0-.254.008-.317.18a19.32,19.32,0,0,0-.993,3.154.644.644,0,0,0,.378.764,3.3,3.3,0,0,0,1.469.367c.47.006.316.321.35.564.044.323-.176.258-.353.258h-5.112c-.153,0-.366.052-.31-.218.045-.213-.19-.551.265-.6a2.586,2.586,0,0,0,2.242-1.811q2.414-6.2,4.848-12.4c.057-.145.059-.376.212-.409a2.8,2.8,0,0,1,.778-.012c.154.012.144.188.185.295q1.7,4.369,3.38,8.741c.519,1.341,1.051,2.677,1.554,4.024a2.226,2.226,0,0,0,1.947,1.559c.51.056.279.4.308.635.041.321-.229.188-.363.189-.933.012-1.866.006-2.8.006m-7.534-6.257c1.469,0,2.872,0,4.275,0,.272,0,.235-.1.161-.287-.426-1.07-.841-2.143-1.258-3.215-.295-.755-.589-1.511-.921-2.364-.77,2-1.505,3.91-2.256,5.863" transform="translate(-54.216 -6.779)"></path><path class="c" d="M629.692,86.129q-1.418,0-2.836,0c-.181,0-.37.024-.316-.255.042-.218-.161-.556.3-.561a3.8,3.8,0,0,0,1.239-.231c.4-.14.5-.287.366-.674-.4-1.146-.835-2.281-1.252-3.423-.051-.138-.149-.144-.265-.144q-2.463,0-4.926,0a.23.23,0,0,0-.256.161,17.166,17.166,0,0,0-.983,3.154.652.652,0,0,0,.476.846,3.9,3.9,0,0,0,1.41.315c.471.013.241.357.288.568.063.287-.145.246-.316.246-1.7,0-3.408,0-5.112,0-.135,0-.378.093-.325-.2.042-.221-.211-.572.271-.627a2.566,2.566,0,0,0,2.212-1.793q2.078-5.335,4.172-10.665c.253-.646.507-1.293.749-1.943a.318.318,0,0,1,.35-.243c.633,0,.633-.013.861.578,1.606,4.15,3.221,8.3,4.81,12.452a2.31,2.31,0,0,0,2.023,1.62c.453.052.226.383.27.6.055.265-.149.222-.307.222h-2.911m-7.5-6.257c1.424,0,2.8-.012,4.18.008.36.005.335-.109.232-.37-.714-1.808-1.419-3.62-2.153-5.5-.761,1.975-1.5,3.9-2.258,5.86" transform="translate(-59.21 -6.779)"></path><path class="c" d="M666.438,86.13c-.957,0-1.916,0-2.873,0-.164,0-.355.026-.292-.231.051-.208-.2-.56.269-.582a4.383,4.383,0,0,0,1.347-.267c.262-.1.4-.276.3-.547-.42-1.179-.854-2.353-1.28-3.53-.051-.139-.156-.132-.27-.132-1.63,0-3.259,0-4.889,0a.273.273,0,0,0-.3.206,19.754,19.754,0,0,0-.966,3.046.691.691,0,0,0,.484.913,3.431,3.431,0,0,0,1.336.3c.469,0,.318.317.352.562.042.322-.176.259-.354.259h-5.112c-.154,0-.364.048-.307-.221.044-.212-.193-.55.265-.6a2.6,2.6,0,0,0,2.261-1.838q2-5.148,4.023-10.285c.293-.75.589-1.5.873-2.255.069-.183.143-.277.365-.274.628.005.627-.006.856.588,1.6,4.151,3.218,8.3,4.809,12.453a2.289,2.289,0,0,0,2,1.6c.484.054.256.388.293.611.051.312-.2.209-.347.211-.946.006-1.891,0-2.837,0m-5.269-12.119-.558,1.441c-.531,1.375-1.063,2.749-1.586,4.127-.034.092-.237.294.094.294h4.338l-2.288-5.861" transform="translate(-62.73 -6.779)"></path><path class="c" d="M588.537,70.885c2.077,0,4.154.006,6.231-.007.3,0,.4.061.4.381-.021,1.144,0,2.288-.014,3.432,0,.118.117.36-.136.339-.232-.02-.55.2-.687-.212a7.319,7.319,0,0,0-1.216-2.205,1.882,1.882,0,0,0-1.579-.834c-.521.012-1.043-.011-1.564-.037-.237-.013-.324.051-.315.3.02.522.005,1.044.005,1.567q0,5.054,0,10.108c0,.918.238,1.227,1.125,1.429.351.08.706.144,1.062.191.457.061.192.4.243.61.061.246-.141.2-.282.2q-3.32,0-6.641,0c-.185,0-.335-.014-.285-.248.044-.2-.181-.538.257-.564a7.816,7.816,0,0,0,1.257-.15,1.031,1.031,0,0,0,.945-1.174c0-1.554,0-3.108,0-4.662,0-2.4-.008-4.8.008-7.2,0-.349-.1-.433-.431-.416-.558.027-1.117.03-1.676.061a1.58,1.58,0,0,0-1.126.572,7.258,7.258,0,0,0-1.424,2.424.735.735,0,0,1-.809.219c-.063-.059-.04-.139-.04-.211,0-1.219.009-2.437-.008-3.656,0-.312.176-.262.359-.262h6.343" transform="translate(-55.821 -6.8)"></path><path class="c" d="M677.805,78.5c1.107-1.842,2.252-3.585,3.218-5.433a3.27,3.27,0,0,0,.149-.34.52.52,0,0,0-.288-.765,3.032,3.032,0,0,0-1.343-.256c-.493-.02-.271-.363-.308-.585-.05-.3.179-.233.34-.233q2.332,0,4.665,0c.135,0,.35-.063.311.184-.035.217.2.539-.212.636a3.451,3.451,0,0,0-2.094,1.5c-1.342,1.931-2.462,3.991-3.614,6.035a3.733,3.733,0,0,0-.366,1.842c-.014.882-.009,1.766,0,2.649a1.208,1.208,0,0,0,1.12,1.412,5.618,5.618,0,0,0,1.024.186c.488.027.262.373.3.6.056.306-.183.222-.334.222q-3.246.005-6.494,0c-.155,0-.391.076-.332-.227.043-.219-.2-.583.3-.588a5.612,5.612,0,0,0,1.256-.15.942.942,0,0,0,.831-.957c.032-1.305.041-2.612.014-3.916a3.065,3.065,0,0,0-.51-1.268q-1.385-2.7-2.87-5.345a5.51,5.51,0,0,0-.967-1.361,2.381,2.381,0,0,0-1.4-.635c-.47-.056-.207-.414-.25-.633-.049-.251.174-.183.306-.183,1.965,0,3.931,0,5.9-.008.257,0,.345.085.294.316-.041.182.182.5-.27.485a4.229,4.229,0,0,0-1.327.16c-.387.118-.46.259-.287.626.657,1.392,1.412,2.733,2.154,4.08.346.629.7,1.257,1.084,1.954" transform="translate(-64.271 -6.8)"></path><path class="c" d="M649.364,48.706H652.5c.147,0,.338-.027.281.21-.048.2.2.531-.225.579a8.421,8.421,0,0,0-1.248.205.949.949,0,0,0-.819,1.042q-.008,5.559,0,11.116a1.021,1.021,0,0,0,.781,1.051,7.535,7.535,0,0,0,1.312.269c.4.062.143.372.2.561s-.069.222-.235.222q-3.208-.007-6.417,0c-.17,0-.284-.048-.232-.227s-.2-.507.2-.561c.369-.049.743-.063,1.111-.12a.983.983,0,0,0,.957-1.108q0-5.521,0-11.041a.92.92,0,0,0-.73-1.064,5.078,5.078,0,0,0-1.262-.311c-.467-.051-.25-.4-.28-.626-.039-.284.2-.192.335-.193,1.044-.006,2.088,0,3.133,0" transform="translate(-61.964 -4.672)"></path><path class="c" d="M576.55,96.936c.523,0,1.046-.018,1.568.006.321.016.452-.05.433-.411-.034-.645-.009-1.293-.01-1.94,0-.665-.142-.852-.8-1-.2-.044-.4-.048-.348-.343s.277-.151.417-.154c.957-.013,1.916-.008,2.873-.006.144,0,.3-.042.3.2,0,.2-.086.258-.259.273-.11.009-.218.042-.328.058-.412.058-.548.309-.545.7.011,1.419,0,2.836,0,4.255V100.3c0,.614.143.78.754.89a1.6,1.6,0,0,0,.184.029c.2.014.179.156.184.3.006.191-.114.185-.245.185-1.032,0-2.065,0-3.1,0-.162,0-.256-.023-.249-.219.005-.16.027-.267.217-.265a2.324,2.324,0,0,0,.334-.03c.406-.053.587-.226.591-.627.012-.946,0-1.891.01-2.837,0-.184-.066-.23-.239-.229q-1.772.008-3.546,0c-.2,0-.255.069-.253.259.008.883,0,1.767.006,2.65.005.452.147.618.584.74a2.026,2.026,0,0,0,.365.072c.193.017.2.14.2.287,0,.178-.091.2-.236.2q-1.549-.005-3.1,0c-.154,0-.259-.011-.264-.212s.061-.275.249-.278a2.749,2.749,0,0,0,.334-.028.577.577,0,0,0,.566-.618q.01-3.118,0-6.232c0-.441-.222-.615-.862-.758-.13-.029-.28-.008-.283-.215,0-.173.017-.278.236-.277,1.045.008,2.09,0,3.135,0,.156,0,.226.049.222.214,0,.141-.021.244-.191.254-.912.056-.973.3-.961,1.229.008.635.009,1.27,0,1.9,0,.2.057.256.252.253.6-.012,1.194,0,1.792,0" transform="translate(-54.883 -8.929)"></path><path class="c" d="M591.913,96.816c1.361-1.456,2.931-1.245,3.654,0a2.894,2.894,0,0,1,1.729-1.006,1.567,1.567,0,0,1,1.892,1.476c.1,1.1.026,2.211.041,3.317.009.684.042.749.717.9.175.04.177.119.182.251.007.172-.077.2-.228.2q-1.23-.007-2.463,0c-.15,0-.223-.033-.231-.2s.053-.226.226-.25c.553-.074.638-.184.638-.751,0-.97,0-1.94,0-2.91a1.669,1.669,0,0,0-.139-.724.963.963,0,0,0-1.062-.573,1.362,1.362,0,0,0-1.3,1.5c0,.871,0,1.741,0,2.611,0,.607.082.717.662.843.178.039.21.1.21.263,0,.181-.09.2-.234.2-.8,0-1.591-.005-2.389,0-.163,0-.245-.026-.25-.22s.081-.212.238-.234c.514-.071.6-.184.6-.706,0-1.007,0-2.014,0-3.021,0-.762-.417-1.255-1.036-1.244-.692.012-1.526.635-1.479,1.282.068.928.016,1.864.017,2.8,0,.608.1.756.674.882.2.044.232.121.226.291-.007.2-.137.17-.261.17h-2.388c-.139,0-.267.019-.277-.2s.085-.236.259-.258c.525-.067.619-.187.619-.73q0-1.679,0-3.358c0-.595-.155-.811-.728-.943-.174-.04-.254-.078-.249-.275.006-.221.152-.191.28-.2.508-.033,1.019-.045,1.525-.1.264-.027.334.073.32.308-.01.172,0,.344,0,.6" transform="translate(-56.584 -9.191)"></path><path class="c" d="M609.094,100.186c-.017-.384-.041-.769-.047-1.154,0-.114-.1-.3.126-.318.186-.014.389-.07.456.229a3.507,3.507,0,0,0,.3.8,2.511,2.511,0,0,0,1.916,1.542,1.533,1.533,0,0,0,1.824-.914,1.726,1.726,0,0,0-.891-2.106c-.357-.172-.736-.3-1.1-.444-.31-.125-.624-.244-.928-.384a2.3,2.3,0,0,1-1.42-2.66,2.525,2.525,0,0,1,2.276-1.89,3.3,3.3,0,0,1,1.965.449c.169.1.288.129.374-.085.1-.255.334-.2.513-.163s.095.23.1.349c.028.744.042,1.49.057,2.235,0,.116.043.272-.16.263-.161-.007-.356.074-.419-.184a5.04,5.04,0,0,0-.453-1.216,1.908,1.908,0,0,0-1.607-1.111,1.4,1.4,0,0,0-1.463.859,1.5,1.5,0,0,0,.53,1.661,5.188,5.188,0,0,0,1.269.612,12.885,12.885,0,0,1,1.5.664,2.4,2.4,0,0,1,.346,3.87,3.492,3.492,0,0,1-3.718.429,1.127,1.127,0,0,1-.269-.126c-.208-.149-.344-.121-.439.128s-.312.172-.484.153c-.213-.023-.12-.213-.124-.331-.012-.385,0-.77,0-1.156h-.017" transform="translate(-58.429 -8.91)"></path><path class="c" d="M588.342,98.872a3.151,3.151,0,0,1-1.142,2.667,2.906,2.906,0,0,1-4.675-2.157,3.179,3.179,0,0,1,1.041-2.928,2.858,2.858,0,0,1,3.079-.426,2.725,2.725,0,0,1,1.7,2.509c.009.111,0,.223,0,.335m-1.258.093a4.231,4.231,0,0,0-.279-1.676,1.4,1.4,0,0,0-1.295-1,1.373,1.373,0,0,0-1.417.938,4.468,4.468,0,0,0,.074,3.576,1.331,1.331,0,0,0,1.249.854,1.369,1.369,0,0,0,1.274-.817,3.942,3.942,0,0,0,.393-1.872" transform="translate(-55.884 -9.187)"></path><path class="c" d="M650.485,98.778c-.572,0-1.143.006-1.714,0-.2,0-.283.036-.267.269a4.11,4.11,0,0,0,.22,1.165,1.741,1.741,0,0,0,1.584,1.216,1.7,1.7,0,0,0,1.663-.848c.073-.112.077-.38.358-.219.216.125.269.218.119.448a2.772,2.772,0,0,1-3.034,1.235,2.7,2.7,0,0,1-2.075-2.317,3.634,3.634,0,0,1,.606-2.9,2.683,2.683,0,0,1,3.411-.711,2.644,2.644,0,0,1,1.095,2.526c-.04.169-.146.137-.251.137-.57,0-1.143,0-1.714,0m-.619-.523c.383,0,.768-.005,1.151,0,.16,0,.222-.046.212-.211a3.572,3.572,0,0,0-.157-.947,1.145,1.145,0,0,0-1.886-.527,2.036,2.036,0,0,0-.674,1.513c-.012.175.085.17.2.17h1.152" transform="translate(-62.098 -9.189)"></path><path class="c" d="M620.059,98.777c-.572,0-1.145.006-1.716,0-.192,0-.26.043-.246.25a4.135,4.135,0,0,0,.2,1.131,1.762,1.762,0,0,0,1.586,1.269,1.7,1.7,0,0,0,1.691-.865c.072-.114.087-.358.362-.2.233.136.242.238.1.453a2.755,2.755,0,0,1-3,1.23,2.675,2.675,0,0,1-2.09-2.258,3.684,3.684,0,0,1,.533-2.883,2.668,2.668,0,0,1,3.319-.872,2.242,2.242,0,0,1,1.231,2.136c.023.608.015.608-.591.609h-1.38m-.595-.523c.373,0,.747-.012,1.119,0,.2.009.26-.064.243-.255a4.018,4.018,0,0,0-.152-.879,1.155,1.155,0,0,0-1.938-.519A2.063,2.063,0,0,0,618.112,98c-.023.2.033.265.232.259.372-.012.746,0,1.119,0" transform="translate(-59.181 -9.188)"></path><path class="c" d="M601.991,98.956a3.24,3.24,0,0,1,1.168-2.63,2.686,2.686,0,0,1,2.915-.214,2.536,2.536,0,0,1,1.1,2.488c0,.236-.159.175-.281.176-1.107,0-2.215.012-3.322-.005-.3,0-.4.073-.344.376a4.777,4.777,0,0,0,.262,1.157,1.747,1.747,0,0,0,1.614,1.128,1.709,1.709,0,0,0,1.594-.852c.067-.1.062-.36.317-.24.229.108.336.211.15.485a2.773,2.773,0,0,1-3.011,1.216,2.665,2.665,0,0,1-2.064-2.2,4.311,4.311,0,0,1-.094-.889m2.589-.7h.485c1.032,0,1.059-.04.753-1.073a1.1,1.1,0,0,0-.787-.863,1.257,1.257,0,0,0-1.31.428,2.461,2.461,0,0,0-.5,1.34c-.025.19.094.166.2.167.385,0,.771,0,1.156,0" transform="translate(-57.754 -9.189)"></path><path class="c" d="M654.583,101.619c-.132.108-.036.37-.31.361-.212-.006-.339-.011-.329-.291.02-.508-.011-1.019-.02-1.528,0-.108-.1-.264.117-.275.159-.008.3-.033.368.2a2.416,2.416,0,0,0,.694,1.085,1.7,1.7,0,0,0,1.518.424.93.93,0,0,0,.8-.818.916.916,0,0,0-.511-.987,6.65,6.65,0,0,0-1.071-.419,6.559,6.559,0,0,1-.856-.351,1.619,1.619,0,0,1-.891-1.8,1.787,1.787,0,0,1,1.414-1.366,2.877,2.877,0,0,1,1.61.137c.152.057.288.131.375-.1.062-.164.241-.091.368-.087.172.007.118.162.123.259.027.446.052.892.06,1.339,0,.108.127.287-.109.325-.212.033-.342-.026-.385-.266a1.55,1.55,0,0,0-1.932-1.1.791.791,0,0,0-.606.726.824.824,0,0,0,.415.817,5.73,5.73,0,0,0,1.03.421c.256.094.514.183.763.294a1.654,1.654,0,0,1,1.135,1.9,1.916,1.916,0,0,1-1.574,1.535,2.857,2.857,0,0,1-2.2-.43" transform="translate(-62.734 -9.189)"></path><path class="c" d="M642.044,98.711a3.632,3.632,0,0,0,.207,1.465,1.721,1.721,0,0,0,1.437,1.248,1.769,1.769,0,0,0,1.676-.845c.07-.1.079-.331.306-.221.2.1.31.2.143.445a2.82,2.82,0,0,1-3.007,1.238,2.672,2.672,0,0,1-1.988-2.348,3.6,3.6,0,0,1,.674-2.886,2.771,2.771,0,0,1,3.063-.862,1.46,1.46,0,0,1,1.035,1.612.623.623,0,0,1-.743.6.639.639,0,0,1-.625-.758,4.706,4.706,0,0,1,.083-.476c.087-.411-.023-.567-.446-.621a1.333,1.333,0,0,0-1.478.821,3.809,3.809,0,0,0-.337,1.59" transform="translate(-61.474 -9.189)"></path><path class="c" d="M632.646,100.411c.466-1.137.913-2.224,1.354-3.313a.383.383,0,0,0-.263-.556,2.181,2.181,0,0,0-.387-.128c-.194-.031-.14-.168-.146-.283-.006-.146.1-.148.2-.148l1.9,0c.1,0,.212-.013.208.138,0,.115.043.241-.145.286a1.3,1.3,0,0,0-.881.882c-.625,1.511-1.352,2.979-1.876,4.531a.277.277,0,0,1-.289.219c-.216.016-.306-.08-.381-.263-.62-1.512-1.255-3.019-1.868-4.534a1.164,1.164,0,0,0-.822-.784c-.186-.045-.227-.155-.21-.326.021-.2.166-.148.28-.149q1.119,0,2.237,0c.132,0,.276-.034.279.189,0,.185-.052.259-.239.294-.548.106-.55.116-.338.636q.6,1.481,1.208,2.958c.042.1.1.2.174.35" transform="translate(-60.349 -9.208)"></path><path class="c" d="M625.5,96.821a2.8,2.8,0,0,1,1.3-.93.937.937,0,0,1,1.065.215.987.987,0,0,1,.14,1.052.583.583,0,0,1-.759.361.555.555,0,0,1-.491-.6c0-.447-.019-.463-.421-.253a1.283,1.283,0,0,0-.845,1.3c.052.854.012,1.715.013,2.573,0,.747.11.872.86.976.15.02.325-.033.317.236s-.184.213-.332.214c-.859,0-1.717,0-2.575,0-.154,0-.285.022-.295-.215s.127-.216.277-.235c.5-.064.613-.2.614-.7q0-1.715,0-3.432c0-.562-.186-.812-.724-.907-.192-.034-.243-.094-.239-.278.006-.225.164-.179.288-.188.484-.033.968-.047,1.45-.1.27-.028.4.027.362.326a5.132,5.132,0,0,0,0,.58" transform="translate(-59.808 -9.193)"></path><path class="c" d="M638.765,98.558q0,1.081,0,2.162c0,.51.106.652.607.783.162.042.3.046.282.285-.023.286-.222.182-.355.184-.746.009-1.491.007-2.237,0-.127,0-.307.083-.32-.178-.011-.222.081-.253.274-.272.471-.047.61-.2.614-.671q.012-1.751,0-3.5c0-.5-.214-.716-.765-.845-.167-.039-.343-.03-.308-.3s.231-.174.366-.184c.495-.041.993-.042,1.485-.1.318-.037.37.085.363.364-.016.758-.005,1.515-.005,2.273" transform="translate(-61.07 -9.202)"></path><path class="c" d="M637.4,93.262a.786.786,0,1,1,1.571-.024.855.855,0,0,1-.8.865.809.809,0,0,1-.768-.842" transform="translate(-61.152 -8.87)"></path><path class="c" d="M612.4,14.951a1.946,1.946,0,0,1,1.292,2.031,1.807,1.807,0,0,1-1.752,1.752c-1.177.118-2.36.021-3.539.051-.215,0-.2-.119-.2-.262q0-3.449,0-6.9c0-.169.034-.24.222-.238,1.094.009,2.188-.012,3.281.014a1.841,1.841,0,0,1,.7,3.55m-1.9.474v0c-.36,0-.72.008-1.079,0-.192-.006-.291.025-.286.257.014.67.008,1.34,0,2.01,0,.165.035.252.225.249.756-.014,1.514.012,2.268-.035a1.154,1.154,0,0,0,1.115-1.247,1.227,1.227,0,0,0-1.2-1.225c-.347-.016-.7,0-1.042,0m-.056-3.2c-.361,0-.721,0-1.081,0-.145,0-.231.019-.228.2.009.646.009,1.293,0,1.939,0,.161.058.218.218.216.721-.011,1.442.015,2.161-.028a1.086,1.086,0,0,0,1.079-1.182,1.149,1.149,0,0,0-1.183-1.139c-.323-.009-.646,0-.969,0" transform="translate(-58.349 -1.092)"></path><path class="c" d="M608.2,24.673c0-1.119.009-2.238-.006-3.357,0-.263.068-.335.33-.329.612.015.612,0,.613.608,0,.746.007,1.493-.006,2.238,0,.231.044.327.3.325,1.231-.013,2.463-.01,3.694,0,.235,0,.292-.08.289-.3-.011-.846.007-1.691-.01-2.536,0-.263.071-.337.333-.332.621.013.621,0,.621.634q0,3.134,0,6.268c0,.482,0,.482-.5.484a1.163,1.163,0,0,0-.186,0c-.216.033-.269-.063-.266-.27.009-.919-.009-1.84.012-2.76.005-.285-.078-.353-.354-.348-1.194.015-2.389.018-3.582,0-.317-.006-.36.118-.355.382.012.883,0,1.767.012,2.65,0,.265-.047.367-.345.355-.6-.024-.6,0-.6-.609v-3.1" transform="translate(-58.349 -2.013)"></path><path class="c" d="M616.056,15.1c0-1.119.008-2.238-.006-3.358,0-.268.049-.367.343-.358.609.021.61,0,.61.608,0,.759.009,1.517-.005,2.275,0,.231.058.293.289.29,1.243-.012,2.487-.01,3.731,0,.213,0,.271-.063.269-.272-.01-.845.011-1.691-.013-2.536-.008-.308.1-.37.377-.362.578.018.578,0,.578.6,0,2.139-.006,4.278.007,6.417,0,.31-.081.43-.391.382a1.13,1.13,0,0,0-.3,0c-.22.027-.271-.071-.269-.277.009-.933,0-1.866.009-2.8,0-.24-.062-.317-.307-.315q-1.847.016-3.694,0c-.231,0-.292.068-.288.295.013.908-.005,1.815.012,2.723.005.285-.059.423-.365.371a.838.838,0,0,0-.26,0c-.26.038-.337-.063-.334-.326.014-1.119.006-2.238.006-3.358" transform="translate(-59.103 -1.092)"></path><path class="c" d="M621.926,22.586a2.873,2.873,0,0,0-2.333-.87,1.543,1.543,0,0,0-.925.35.9.9,0,0,0,.145,1.565,6.5,6.5,0,0,0,1.406.476,6.433,6.433,0,0,1,1.393.51,1.806,1.806,0,0,1,1.032,1.72,1.947,1.947,0,0,1-1.064,1.795,4.028,4.028,0,0,1-4.319-.608c-.167-.16-.153-.261-.02-.43.363-.462.351-.463.812-.108a2.9,2.9,0,0,0,2.7.552,1.2,1.2,0,0,0,.922-1.051,1.076,1.076,0,0,0-.773-1.107,12.589,12.589,0,0,0-1.668-.518,5.057,5.057,0,0,1-.936-.362,1.808,1.808,0,0,1-.429-2.922,3.512,3.512,0,0,1,4.5.206c.082.084.1.148.017.245-.156.176-.3.363-.461.558" transform="translate(-59.207 -2.001)"></path><path class="c" d="M605.652,33.385c.285-.46.568-.927.862-1.386.053-.083.079-.288.257-.146.138.111.41.111.35.4-.064.312-.117.627-.193,1.035.322-.239.58-.41.812-.608.261-.224.414.025.576.128.182.116-.02.236-.075.331-.231.4-.487.779-.721,1.175-.079.135-.138.179-.283.084s-.211-.144-.093-.312a2.9,2.9,0,0,0,.405-.795c-.221.166-.44.338-.667.5-.106.072-.2.236-.349.152s-.049-.246-.031-.371c.039-.269.089-.534.146-.869a1.735,1.735,0,0,0-.443.611c-.158.315-.324.329-.553.067" transform="translate(-58.105 -3.051)"></path><path class="c" d="M629.822,13.954c.291-.057.588-.1.873-.176.27-.073.336.1.373.285.043.219-.157.133-.251.15-.476.085-.956.143-1.429.239a.256.256,0,0,1-.338-.177.235.235,0,0,1,.093-.338,3.814,3.814,0,0,0,.683-.645c-.3.056-.6.106-.894.17a.263.263,0,0,1-.343-.172.238.238,0,0,1,.084-.34c.378-.321.746-.655,1.127-.971.067-.056.152-.275.273-.06.067.119.22.259.011.413-.276.2-.537.428-.855.684a5.409,5.409,0,0,0,1-.139c.124-.018.26-.08.35.1s-.05.244-.142.328c-.22.2-.446.391-.67.584l-.058.06c.034.042.075.027.115.006" transform="translate(-60.302 -1.135)"></path><path class="c" d="M599.971,19.752l-.074-.006c-.3-.038-.768.1-.872-.126a2.007,2.007,0,0,1,.032-1.05.452.452,0,0,1,.668-.361.414.414,0,0,0,.52.027.47.47,0,0,1,.7.41,9.986,9.986,0,0,1-.051,1.037c-.009.156-.121.127-.218.12-.234-.015-.469-.034-.7-.052m.18-.771c-.011.211-.078.387.2.38.321-.009.164-.259.209-.4s.015-.328-.174-.333c-.278,0-.212.24-.23.351m-.377.008c-.014-.155.064-.379-.19-.368-.232.009-.173.23-.189.38s-.051.3.191.3c.259,0,.15-.2.188-.315" transform="translate(-57.464 -1.741)"></path><path class="c" d="M612.135,5.734c-.311.241-.529.094-.743-.135-.1-.109-.21-.3-.4-.184s0,.266.014.4.124.269-.118.337c-.219.061-.249-.044-.294-.206q-.191-.679-.407-1.352c-.053-.165-.019-.253.153-.3.251-.065.5-.152.752-.21a.542.542,0,0,1,.567.2c.15.184.261.439.111.616-.287.337-.022.458.166.633.064.059.121.125.2.2m-1.056-1.249c-.135.065-.373,0-.381.232,0,.113-.027.347.2.308.192-.033.457-.035.468-.326.006-.173-.133-.218-.291-.214" transform="translate(-58.539 -0.39)"></path><path class="c" d="M602.506,13.216c-.036.413-.283.462-.58.464-.146,0-.354-.061-.4.169s.19.177.292.258.3.061.19.3-.228.155-.378.085c-.415-.193-.829-.391-1.249-.573-.169-.074-.231-.146-.125-.329.122-.214.2-.455.319-.671a.56.56,0,0,1,.553-.31c.233.018.486.1.529.34.061.346.254.325.5.285.108-.017.22-.014.347-.022m-1.185.109c0-.17-.078-.267-.22-.264-.278.005-.326.265-.363.442-.043.2.23.253.332.235.2-.035.191-.272.251-.413" transform="translate(-57.583 -1.21)"></path><path class="c" d="M617.419,34.682c-.033-.1.015-.159.144-.177.269-.039.535-.1.806-.129a.556.556,0,0,1,.567.279.528.528,0,0,1,.013.63c-.251.26-.1.405.063.595.069.078.269.173.146.273a.326.326,0,0,1-.493-.039c-.089-.119-.187-.231-.278-.349a.2.2,0,0,0-.255-.086c-.149.052-.08.16-.072.248a2.915,2.915,0,0,0,.052.291c.033.185-.117.146-.212.173s-.194.031-.218-.112c-.084-.525-.171-1.05-.261-1.6m.852.09c-.091.1-.376-.1-.364.2,0,.115-.055.352.183.32.185-.025.462.025.495-.275.02-.192-.123-.247-.313-.245" transform="translate(-59.233 -3.298)"></path><path class="c" d="M603.313,31a1,1,0,0,1,1-.983,1.009,1.009,0,1,1,0,2.019,1.039,1.039,0,0,1-1-1.036m1.591-.033a.562.562,0,0,0-.55-.541.7.7,0,0,0-.643.65.6.6,0,0,0,.558.546.685.685,0,0,0,.635-.655" transform="translate(-57.881 -2.88)"></path><path class="c" d="M614.784,35.613v-.289c0-.731,0-.732.723-.708.161.005.322.023.483.023.143,0,.152.084.154.193s-.028.193-.164.184c-.173-.01-.346-.017-.519-.025-.132-.006-.244,0-.251.183s.077.214.224.212c.174,0,.348,0,.522,0,.123,0,.184.048.174.178-.009.108-.035.2-.167.2-.186,0-.372,0-.559,0-.149,0-.221.045-.223.212s.08.2.224.2c.161-.006.322,0,.484,0,.122,0,.242-.024.248.175.006.221-.125.2-.263.2-.037,0-.075,0-.112,0-.319-.014-.721.125-.937-.068s-.019-.587-.04-.863" transform="translate(-58.976 -3.32)"></path><path class="c" d="M626.4,8.457c.109-.12.224-.234.323-.361s.176-.172.323-.037.128.2.011.325c-.33.354-.658.711-.966,1.083-.134.163-.212.134-.354.019-.182-.146-.04-.223.033-.325.1-.144.37-.253.289-.421a1.1,1.1,0,0,0-.506-.474c-.207-.1-.276.182-.394.3-.136.134-.23.255-.4.044-.076-.091-.111-.133-.019-.233.352-.384.7-.772,1.038-1.168.113-.132.19-.11.3-.009s.161.161.031.294-.367.285-.307.416c.09.2.324.33.5.488a.651.651,0,0,0,.1.06" transform="translate(-59.931 -0.683)"></path><path class="c" d="M601.185,28.617c-.134-.006-.151-.125-.212-.193-.08-.088-.038-.154.047-.211.441-.3.886-.592,1.322-.9.141-.1.19-.017.258.081s.138.184-.008.273c-.052.032-.1.075-.154.1-.266.133-.345.269-.124.547.295.368.27.387.683.124.106-.067.2-.194.323,0,.1.157.1.242-.061.349-.416.269-.825.549-1.229.835-.134.094-.205.079-.287-.061-.067-.116-.139-.212.028-.3a.487.487,0,0,0,.063-.041c.447-.323.437-.316.132-.777-.127-.194-.231-.245-.417-.081a3.149,3.149,0,0,1-.364.244" transform="translate(-57.652 -2.616)"></path><path class="c" d="M608.048,7.316c.009.129-.115.141-.183.2s-.15.078-.211-.026a2.009,2.009,0,0,1-.123-.185c-.145-.333-.309-.335-.61-.135s-.364.335-.123.614c.094.109.32.25.032.438s-.3-.108-.383-.219c-.253-.336-.477-.694-.716-1.042-.089-.131-.165-.231.034-.358.177-.113.225-.023.316.094s.143.4.322.35a2.121,2.121,0,0,0,.6-.368c.094-.063.021-.129-.019-.188a3.072,3.072,0,0,0-.228-.338c-.117-.138-.018-.2.078-.258s.166-.166.27-.008c.3.456.608.906.912,1.359a.472.472,0,0,1,.036.069" transform="translate(-58.104 -0.557)"></path><path class="c" d="M617.363,5.234c.089-.487.179-.974.264-1.462.026-.151.079-.205.248-.164.153.038.2.084.175.246s-.168.409-.052.486a1.528,1.528,0,0,0,.672.168c.277.03.149-.222.2-.346.065-.158,0-.424.332-.314.118.04.158.065.133.2-.1.511-.185,1.023-.271,1.536-.025.15-.11.168-.24.15s-.22-.049-.19-.2a.51.51,0,0,0,.008-.074c.017-.179.171-.416.03-.522a1.814,1.814,0,0,0-.637-.161c-.116-.027-.156.029-.173.129-.023.135-.056.268-.072.4-.02.169-.091.231-.27.2s-.179-.135-.155-.269" transform="translate(-59.228 -0.345)"></path><path class="c" d="M627.507,29.41c-.166.183-.315.333-.447.5-.068.085-.256.141-.076.316s.246.051.344-.061.2-.22.3-.334.159-.132.275-.024.131.184.005.3-.211.246-.331.352-.125.2.007.318.2.075.293-.039c.109-.135.237-.253.35-.385.079-.093.136-.159.258-.035.1.106.148.176.028.3-.225.231-.445.466-.655.711-.112.13-.2.1-.306,0-.372-.347-.742-.694-1.124-1.03-.12-.106-.089-.172,0-.265.229-.244.451-.494.68-.737.043-.046.084-.138.174-.07s.149.125.229.191" transform="translate(-60.091 -2.801)"></path><path class="c" d="M610.942,33.97c-.072.139-.032.362-.287.242-.167-.078-.353-.118-.521-.193-.13-.059-.2-.048-.246.1s-.048.205.1.249.3.108.452.166c.119.048.266.053.174.272s-.2.126-.322.08c-.139-.052-.28-.1-.418-.156s-.218-.011-.27.138-.016.2.121.242c.177.055.344.146.522.193s.151.127.11.248-.116.165-.253.108c-.343-.141-.825-.174-1-.425s.167-.644.281-.974c.092-.264.1-.667.333-.743s.527.138.788.244c.146.059.33.068.431.212" transform="translate(-58.433 -3.214)"></path><path class="c" d="M630.065,17.733c-.044-.227-.21-.414.073-.606.173-.117-.031-.777-.248-.825-.2-.044-.2-.18-.24-.324s0-.178.141-.156c.562.086,1.124.175,1.689.242.221.027.18.192.231.319a.218.218,0,0,1-.09.311c-.353.229-.7.471-1.044.706-.164.109-.33.214-.511.332m1.111-1.245a.525.525,0,0,0-.4-.1c-.095,0-.245-.1-.278.052a.47.47,0,0,0,.074.347c.1.133.179-.042.263-.08a2.482,2.482,0,0,0,.34-.22" transform="translate(-60.407 -1.517)"></path><path class="c" d="M599.372,16.406c.081-.325.165-.649.244-.975.03-.118.091-.172.213-.121.1.041.226.041.156.22s-.085.362-.139.54c-.038.125-.046.212.109.252s.229.013.255-.157.091-.335.123-.505c.029-.155.117-.168.243-.14a.154.154,0,0,1,.133.217c-.045.167-.082.337-.136.5s.017.226.175.281c.207.071.2-.077.231-.183.046-.154.071-.314.113-.47.031-.117.043-.243.239-.174.151.053.187.1.137.26-.112.352-.1.843-.33,1.03s-.664-.118-1.012-.191c-.207-.042-.408-.109-.615-.148-.152-.029-.178-.11-.141-.238" transform="translate(-57.502 -1.467)"></path><path class="c" d="M626.635,10.451c.625-.182,1.208-.345,1.786-.524.2-.06.263.069.356.183s.143.205.042.357c-.331.506-.644,1.025-.979,1.563-.151-.184-.368-.3-.185-.576.081-.125-.357-.743-.48-.689-.318.142-.381-.1-.541-.314m1.732.017c-.269-.1-.476.071-.711.146.282.448.281.448.548.046a2.1,2.1,0,0,1,.164-.194l-.022-.041c.006.014.014.029.021.043" transform="translate(-60.119 -0.951)"></path><path class="c" d="M613.88,4.318c.173-.02.323-.028.468-.057s.175.024.2.146,0,.219-.15.231c-.174.015-.346.043-.52.049-.193.005-.211.108-.2.269.012.206.143.162.262.151.173-.016.345-.038.518-.06.116-.014.19.007.2.147,0,.124.006.229-.159.226a.678.678,0,0,0-.074,0c-.357.027-.8.235-1.045.05-.227-.171-.124-.647-.169-.988-.114-.86-.115-.86.739-.933.087-.007.174-.015.259-.03.141-.024.265-.057.29.161s-.135.194-.257.215a3.623,3.623,0,0,1-.371.036c-.157.011-.3.018-.27.248.028.263.213.071.286.135" transform="translate(-58.825 -0.336)"></path><path class="c" d="M621.879,6.765c-.258-.075-.482-.072-.473-.405,0-.19-.685-.406-.825-.259s-.261.068-.4.024c-.169-.053-.145-.125-.044-.232.382-.407.764-.813,1.133-1.231.141-.159.264-.061.4-.018a.255.255,0,0,1,.215.286c-.014.594-.005,1.19-.005,1.836m-.454-.916a1.874,1.874,0,0,0,0-.749c-.167.2-.364.353-.415.542-.03.108.242.137.414.207" transform="translate(-59.488 -0.439)"></path><path class="c" d="M628.185,27.967a1.053,1.053,0,0,1,.582-.759c.084-.048.189-.1.239.052.036.108.147.22-.047.3a.749.749,0,0,0-.345.328c-.045.077-.089.155,0,.233s.165.037.233-.019c.134-.11.254-.238.39-.345a.531.531,0,0,1,.685-.056.553.553,0,0,1,.218.685,1.187,1.187,0,0,1-.6.721c-.108.056-.222.133-.3-.054-.053-.136-.106-.245.095-.309a.66.66,0,0,0,.411-.405.2.2,0,0,0-.033-.243c-.082-.067-.162-.017-.231.042-.15.13-.293.269-.452.386a.49.49,0,0,1-.59.035.581.581,0,0,1-.25-.593" transform="translate(-60.267 -2.606)"></path><path class="c" d="M603.613,8.791a1.037,1.037,0,0,1,.818-.853c.092-.007.187-.011.184.114,0,.1.088.226-.089.274a.9.9,0,0,0-.444.259.189.189,0,0,0-.04.238c.064.1.155.052.231.013.154-.08.3-.175.457-.246a.531.531,0,0,1,.7.126.571.571,0,0,1,.013.724,1.2,1.2,0,0,1-.733.534c-.128.029-.228.065-.265-.129-.033-.167-.036-.263.166-.268a.394.394,0,0,0,.174-.061c.185-.1.446-.233.328-.457-.126-.239-.312.027-.467.083-.127.046-.24.133-.369.172a.507.507,0,0,1-.669-.523" transform="translate(-57.91 -0.761)"></path><path class="c" d="M602.412,11.109c.04-.425-.479-.865.061-1.272a2.906,2.906,0,0,1,.234.8.281.281,0,0,0,.356.26c.307-.03.617-.034.958-.052-.09.29-.226.466-.543.424a.8.8,0,0,0-.186,0c-.141.014-.349-.043-.4.092-.07.173.156.22.259.313s.27.128.118.337c-.133.182-.217.127-.353.026-.38-.278-.767-.548-1.155-.814-.128-.087-.205-.149-.084-.315.107-.146.179-.158.322-.052a.982.982,0,0,0,.417.251" transform="translate(-57.718 -0.944)"></path><path class="c" d="M612.016,35.58a.894.894,0,0,0,.665.353c.091,0,.18-.023.208-.12s-.032-.163-.117-.206c-.176-.089-.359-.166-.527-.269a.483.483,0,0,1-.252-.567.54.54,0,0,1,.505-.423,1.082,1.082,0,0,1,.806.209c.083.064.26.124.11.279-.093.1-.187.244-.35.052a.552.552,0,0,0-.4-.17c-.09,0-.182,0-.22.1-.044.113.055.155.127.193.152.082.314.147.465.231a.528.528,0,0,1,.293.652.539.539,0,0,1-.549.412,1.268,1.268,0,0,1-.716-.155c-.366-.206-.375-.291-.049-.572" transform="translate(-58.693 -3.294)"></path><path class="c" d="M625.387,33.236a1.019,1.019,0,0,1-.991-.966,1.045,1.045,0,0,1,.933-1.032c.139,0,.373-.051.378.165,0,.176-.131.276-.361.257-.309-.026-.472.19-.515.477a.623.623,0,0,0,.476.665.509.509,0,0,0,.648-.349.956.956,0,0,0,.031-.146c.038-.181.2-.133.3-.135.152,0,.1.143.093.23a1,1,0,0,1-1,.833" transform="translate(-59.904 -2.996)"></path><path class="c" d="M621.252,35.008c0-.5.009-.89,0-1.284-.007-.186.072-.257.237-.314s.222-.039.218.145q-.022.838-.022,1.675c0,.171-.111.2-.232.24s-.24.138-.368-.009c-.381-.441-.769-.877-1.154-1.316-.053-.061-.094-.14.02-.166.141-.033.28-.193.435,0,.264.326.54.642.872,1.032" transform="translate(-59.47 -3.203)"></path><path class="c" d="M632.032,18.239c.241.64-.409.635-.6.947.227.288.873.231.709.86a1.671,1.671,0,0,1-.559-.29,1.525,1.525,0,0,0-1.149-.306c-.142.026-.239-.005-.231-.187.005-.119-.01-.25.154-.228.648.087,1.044-.366,1.5-.684.05-.033.1-.064.174-.11" transform="translate(-60.461 -1.75)"></path><path class="c" d="M623.742,6.12c0-.158-.134-.169-.219-.224-.123-.08-.222-.132-.1-.312s.192-.088.3-.023c.306.187.61.377.92.558.125.072.191.13.095.286s-.2.121-.3.03c-.24-.225-.345-.064-.458.136-.157.28-.334.55-.489.831-.085.153-.161.171-.318.08-.176-.1-.133-.189-.052-.317.178-.283.346-.57.519-.857.038-.063.074-.127.108-.187" transform="translate(-59.774 -0.526)"></path><path class="c" d="M631.412,24.168a.523.523,0,1,1-1.045.028.522.522,0,0,1,.508-.534.528.528,0,0,1,.537.506" transform="translate(-60.477 -2.27)"></path><path class="c" d="M600.886,24.165a.527.527,0,0,1-.51.535.52.52,0,0,1-.033-1.04.533.533,0,0,1,.542.5" transform="translate(-57.548 -2.27)"></path><path class="c" d="M623.951,34.3c0,.127-.121.141-.2.187s-.149.064-.211-.05c-.256-.48-.521-.956-.786-1.432-.075-.135.018-.183.109-.221s.167-.165.249-.018c.278.5.549,1,.822,1.5.006.011.011.023.017.036" transform="translate(-59.744 -3.137)"></path><path class="c" d="M608.733,4.963c.125.01.134.109.168.183.205.435.4.873.613,1.305.072.148.081.231-.091.318s-.235.014-.3-.128c-.2-.449-.4-.9-.623-1.342-.146-.294.137-.241.232-.336" transform="translate(-58.375 -0.476)"></path><path class="c" d="M260.864,32.17c.1-.006.2-.017.3-.017,4.69,0,9.381-.019,14.071.018a14.681,14.681,0,0,1,7.619,2,9.607,9.607,0,0,1,4.665,7.21,13.928,13.928,0,0,1-.324,6.046,10.364,10.364,0,0,1-4.974,6.112,5.986,5.986,0,0,1-.787.419c-.3.119-.272.246-.127.486Q284.96,60.5,288.6,66.559c.069.115.133.231.2.358a.491.491,0,0,1-.335.052c-2.725,0-5.449,0-8.174.008a.526.526,0,0,1-.522-.3q-3.147-5.336-6.3-10.666a.605.605,0,0,0-.607-.357c-1.206.021-2.413.008-3.62.009-.487,0-.487,0-.487.469,0,3.475-.005,6.951.008,10.427,0,.349-.1.427-.432.424-2.488-.019-4.976-.016-7.464-.021Zm7.887,11.844q0,2.384,0,4.767c0,.178-.028.337.252.334,1.953-.026,3.909.063,5.859-.049a5.352,5.352,0,0,0,3.522-1.422,5.052,5.052,0,0,0,1.385-4.518,4.236,4.236,0,0,0-3.4-3.891,8.1,8.1,0,0,0-2.027-.269c-1.755-.015-3.51,0-5.263-.017-.268,0-.33.081-.328.335.011,1.577.005,3.153.005,4.73" transform="translate(-25.027 -3.084)"></path><path class="c" d="M418.661,32.007c.7,1.891,1.4,3.785,2.112,5.675q5.427,14.436,10.86,28.869c.153.406.153.406-.294.406-2.414,0-4.828-.009-7.242.011a.525.525,0,0,1-.594-.434c-.8-2.24-1.622-4.471-2.423-6.71a.417.417,0,0,0-.475-.326q-5.767.014-11.534,0a.423.423,0,0,0-.478.332c-.814,2.275-1.648,4.541-2.459,6.817a.415.415,0,0,1-.481.316c-2.351-.008-4.7,0-7.055-.005-.445,0-.445,0-.293-.4q5.781-15.375,11.56-30.751c.475-1.263.937-2.53,1.4-3.8Zm-7.619,20.942h.4c2.226,0,4.452-.006,6.677.006.324,0,.387-.038.268-.372-1.17-3.3-2.319-6.61-3.481-9.915-.032-.091-.012-.233-.172-.269-1.227,3.5-2.454,7.006-3.695,10.549" transform="translate(-38.204 -3.071)"></path><path class="c" d="M380.562,45.388l-7.309,9.419c-.282.363-.561.728-.843,1.09-.307.4-.429.388-.738-.011q-3.005-3.893-6.014-7.782-.957-1.238-1.915-2.475c-.042-.054-.064-.14-.194-.136v.39q0,10.335.007,20.67c0,.335-.078.429-.422.427q-3.378-.024-6.756,0c-.322,0-.441-.054-.44-.416q.019-9.46.005-18.919a1.245,1.245,0,0,1,.148-.6q3.853-7.3,7.7-14.609c.2-.377.215-.377.473-.013q3.782,5.354,7.565,10.706c.069.1.115.221.259.289q.21-.3.42-.6,3.6-5.182,7.2-10.368a.574.574,0,0,1,.536-.3q3.789.016,7.577,0c.273,0,.355.058.355.345q-.012,17.076,0,34.151c0,.253-.055.337-.325.336q-3.472-.016-6.943,0c-.32,0-.351-.117-.351-.382q.008-10.354,0-20.708Z" transform="translate(-34.148 -3.084)"></path><path class="c" d="M453.691,55.426l-1.9,3.378q-2.261,4.022-4.518,8.043a.424.424,0,0,1-.419.278c-2.712-.011-5.424-.006-8.137-.007-.059,0-.117-.005-.214-.011.085-.146.149-.263.218-.375q5.2-8.514,10.4-17.023a.541.541,0,0,0,0-.663q-4.95-8.183-9.88-16.377a.718.718,0,0,1-.174-.39h.33c2.749,0,5.5.005,8.249-.008a.559.559,0,0,1,.57.347q2.823,5.176,5.663,10.342c.059.108.12.215.184.33a1.076,1.076,0,0,0,.272-.4q2.882-5.142,5.753-10.292a.542.542,0,0,1,.551-.323c2.613.012,5.225.006,7.838.01.116,0,.281-.071.34.057s-.084.22-.147.322q-5,8.132-10.007,16.258a.543.543,0,0,0-.009.663q5.107,8.5,10.193,17.013l.116.191c.149.238.12.339-.2.338q-4.106-.012-8.212,0c-.274,0-.358-.137-.464-.325Q457,61.3,453.908,55.807c-.061-.108-.122-.215-.217-.382" transform="translate(-42.07 -3.095)"></path><path class="c" d="M318.08,60.311l-.62,1.155c-.93,1.725-1.865,3.446-2.785,5.176a.526.526,0,0,1-.537.336q-6.98-.016-13.961,0c-.306,0-.392-.075-.392-.388q.014-17.02,0-34.042c0-.341.1-.4.418-.4q11.386.014,22.772,0c.329,0,.41.079.407.407q-.024,3,0,6c0,.357-.111.415-.435.414-5-.01-10,0-15.007-.015-.353,0-.42.1-.418.429q.02,3.2,0,6.406c0,.309.077.388.387.387,4.405-.011,8.81,0,13.216-.018.393,0,.457.114.455.471q-.027,2.906,0,5.81c0,.318-.064.413-.4.412-4.406-.014-8.81,0-13.216-.018-.368,0-.443.1-.44.45q.026,3.314,0,6.629c0,.344.1.4.416.4,3.285-.011,6.571-.006,9.855-.006.074,0,.148.007.29.014" transform="translate(-28.761 -3.084)"></path><path class="c" d="M324.917,66.948l2.455-4.644q7.876-14.889,15.747-29.779a.6.6,0,0,1,.62-.383c2.9.015,5.8.009,8.7.009.421,0,.422,0,.222.382q-9.032,17.073-18.063,34.147c-.09.172-.165.295-.407.294-3.023-.011-6.046-.007-9.07-.007-.049,0-.1-.009-.2-.018" transform="translate(-31.172 -3.084)"></path></g></svg>