<svg xmlns="http://www.w3.org/2000/svg" xmlns:xlink="http://www.w3.org/1999/xlink" width="313.586" height="51.999" viewBox="0 0 313.586 51.999"><defs><style>.a {
  fill: none;
}

.b {
  clip-path: url("#a");
}

.c {
  clip-path: url("#c");
}

.d {
  fill: url("#d");
}

.e {
  clip-path: url("#e");
}

.f {
  fill: url("#f");
}

.g {
  clip-path: url("#g");
}

.h {
  fill: url("#h");
}

.i {
  opacity: .2;
}

.j {
  clip-path: url("#j");
}

.k {
  fill: #fff;
}

.l {
  clip-path: url("#k");
}

.m {
  clip-path: url("#l");
}
</style><clipPath id="a"><rect class="a" width="313.586" height="51.999"></rect></clipPath><clipPath id="c"><path class="a" d="M69.557,0,0,41.121C10.138,35.7,54.246,25.8,54.246,25.8Z" transform="translate(0 -0.001)"></path></clipPath><linearGradient id="d" x1="-0.118" y1="0.907" x2="-0.114" y2="0.907" gradientUnits="objectBoundingBox"><stop offset="0" stop-color="#0035aa"></stop><stop offset="0.005" stop-color="#0035aa"></stop><stop offset="1" stop-color="#15a6ff"></stop></linearGradient><clipPath id="e"><path class="a" d="M.757,148.944c30.171-8.132,64.052-4.044,64.052-4.044l5.346-11.258a33.433,33.433,0,0,0-4.929-.326c-22.018,0-64.47,15.628-64.47,15.628" transform="translate(-0.757 -133.316)"></path></clipPath><linearGradient id="f" x1="-0.73" y1="0.752" x2="-0.723" y2="0.752" xlink:href="#d"></linearGradient><clipPath id="g"><path class="a" d="M5.712,198.231c9.833-.477,68.493,9.665,68.493,9.665l4.944-11.127c-6.223-1.95-15.042-2.641-24.421-2.641-22.85,0-49.016,4.1-49.016,4.1" transform="translate(-5.712 -194.128)"></path></clipPath><linearGradient id="h" x1="-1.089" y1="0.592" x2="-1.081" y2="0.592" xlink:href="#d"></linearGradient><clipPath id="j"><rect class="a" width="69.557" height="41.12"></rect></clipPath><clipPath id="k"><rect class="a" width="69.399" height="15.628"></rect></clipPath><clipPath id="l"><rect class="a" width="73.437" height="4.382"></rect></clipPath></defs><g class="b"><g class="b"><path d="M494.952,66.429a1.351,1.351,0,0,0-1.381,1.381V78.053h-13.72V67.81a1.367,1.367,0,0,0-1.381-1.381,1.351,1.351,0,0,0-1.381,1.381V91.021A1.281,1.281,0,0,0,478.47,92.4a1.351,1.351,0,0,0,1.381-1.381V80.778h13.72V91.021a1.381,1.381,0,0,0,2.762,0V67.81a1.367,1.367,0,0,0-1.381-1.381" transform="translate(-383.132 -53.347)"></path><path d="M605.165,108.691l-.19-.885-.308-.936-.392-.835-.436-.71a.718.718,0,0,0-.2-.325l-.359-.487a.756.756,0,0,0-.166-.24l-.422-.448v-.071L601.84,103l-.8-.612-.2-.172h-.1l-.554-.332-.835-.37-.136-.125h-.17l-.716-.249-.909-.2-.885-.118-.881-.043-.859.037-.888.113-.958.246-.688.229a.714.714,0,0,0-.284.118l-.618.265-.818.468H590.5l-.868.64-.967.86v.059l-.406.443-.782,1.021v.057l-.267.486a.711.711,0,0,0-.173.3l-.33.759-.307.876-.234.924-.122.866-.043.923.038.822.159.944.18.827.308.936.391.835.645,1.188h.073l.322.438.548.585v.071l.852.755.8.608.2.172h.1l.554.332.98.438.877.307.908.2.886.118.813.041h.084l.842-.036.888-.113.913-.233.881-.3.753-.321.818-.468h.047l.868-.639.968-.86v-.059l.408-.445a.813.813,0,0,0,.179-.253l.342-.463a.7.7,0,0,0,.21-.3l.42-.71.4-.9.307-.878.232-.88.125-.914.043-.935-.079-.865Zm-16.145,3.669-.16-.642-.064-.6-.034-.648.031-.614.067-.665.362-1.283.291-.646.356-.614.426-.557.494-.56.517-.453.6-.433.587-.359.648-.291.589-.2.661-.166.653-.1.614-.033.611.033.619.1.672.135.645.226.653.293.587.359.6.433.518.453.494.56.417.545.63,1.227.221.632.129.644.1.648.032.612-.031.614-.067.665-.36,1.277-.282.6-.37.674-.421.551-.494.56-.518.453-.6.433-.58.355-.605.256-.649.239-.65.162-.653.1-.648.033-.577-.032-.621-.1-.672-.134-.645-.226-.653-.293-.587-.359-.6-.433-.517-.453-.494-.56-.426-.557-.355-.613-.261-.588Z" transform="translate(-470.594 -80.931)"></path><path d="M724.427,108.141l-.231-.939-.305-.887-.523-1.224h-.058l-.272-.454-.566-.8-.87-.981h-.055l-.727-.648h-.058l-.406-.3a.715.715,0,0,0-.325-.205l-.541-.325-.06-.06-1.006-.479h-.112l-.716-.249-.95-.2-.88-.116-.88-.043-.865.037-1.044.147a.783.783,0,0,0-.33.1l-.7.188h-.132l-.864.4h-.109l-.923.538a.72.72,0,0,0-.319.194l-.731.508-.575.538-.477-.423-.8-.582-.836-.523-.155-.143H705.9l-.756-.36h-.112l-.716-.249-.909-.2-.886-.118-.917-.043-.865.037-1.046.147a.724.724,0,0,0-.307.093l-.686.192h-.123l-.9.4h-.114l-.931.543a.734.734,0,0,0-.234.132v-.194a1.381,1.381,0,0,0-2.762,0v16.59a1.381,1.381,0,1,0,2.762,0V105.4l.275-.317.588-.555.683-.488.716-.391.761-.3.761-.231.742-.129.713-.032.582.031.669.067.639.16.661.231.652.293.587.358.6.4.5.468.5.534.376.561.376.647.3.608.223.637.127.6.1.686.033.65v8.277a1.351,1.351,0,0,0,1.381,1.381,1.333,1.333,0,0,0,1.345-1.381V109.89l-.037-.894-.114-.856-.189-.912-.312-.914-.357-.759-.3-.534.544-.487.69-.493.716-.391.761-.3.761-.231.742-.129.678-.032.616.031.665.067.587.153.716.239.62.293.631.366.555.392.55.485.453.517.428.593.359.622.262.588.233.667.163.62.1.649.033.65v8.277a1.333,1.333,0,0,0,1.345,1.381,1.351,1.351,0,0,0,1.381-1.381V109.89L724.54,109Z" transform="translate(-557.034 -80.493)"></path><path d="M882.684,109.029l-.113-.886-.233-.914-.3-.881-.321-.685v-.108l-.468-.779v-.048l-.54-.733v-.07l-.779-.827-.721-.649-.8-.608-.194-.172h-.1l-.628-.371-.714-.312-.058-.057-1.017-.339-.9-.2-.886-.118-.881-.043-.859.038-.855.113-.939.231-.761.251a.721.721,0,0,0-.215.09l-1.135.486v.058l-.454.272-.639.477h-.06l-1.08.959v.059l-.648.721v.059l-.343.466a.741.741,0,0,0-.155.256l-.34.566a.716.716,0,0,0-.146.284l-.322.709-.312.886-.2.951-.117.879-.042.774.036.931.113.887.24.976.252.828.458.935.386.675a.706.706,0,0,0,.214.3l.316.429v.059l.612.688v.044l.191.17.162.177h.038l.461.408a.816.816,0,0,0,.253.179l.54.4.065.065.756.432.064.063.949.413.877.307.909.2.886.118.917.042.865-.036,1.057-.149a.718.718,0,0,0,.263-.082l.749-.209a.758.758,0,0,0,.339-.132l.689-.276a.707.707,0,0,0,.289-.137l.707-.383h.055l.975-.709.911-.827.712-.858a1.274,1.274,0,0,0,.343-.924,1.4,1.4,0,0,0-.478-1,1.346,1.346,0,0,0-.979-.338,1.373,1.373,0,0,0-.945.481l-.625.727-.586.554-.683.488-.716.391-.761.3-.761.232-.742.129-.677.033-.616-.033-.653-.1-.667-.134-.61-.224-.665-.3-.622-.36-.593-.429-.517-.453-.486-.55-.384-.542-.377-.616-.286-.6-.192-.638-.143-.573h15.443l.036-.036h.108l.121-.12.5-.03v-.064l.038,0v-.034l.036,0v-.174l.108-.005v-.508l.036-.042Zm-16.062-1.653.3-.66.362-.626.392-.555.485-.55.517-.453.593-.429.628-.364.616-.291.6-.192.647-.17.649-.1.613-.032.612.032.62.1.677.135.668.223.579.289.674.371.534.407.542.474.494.56.426.556.355.613.261.587.232.663.135.542H866.266l.123-.466Z" transform="translate(-693.368 -80.491)"></path><path d="M983.886,84.641v-.035l-8.334-16.663a1.292,1.292,0,0,0-1.252-.782,1.264,1.264,0,0,0-1.2.745L961.466,91.14a1.424,1.424,0,0,0-.055,1.1,1.277,1.277,0,0,0,.664.712,1.427,1.427,0,0,0,.638.147,1.39,1.39,0,0,0,1.237-.748l2.9-5.873h14.9l2.952,5.9a1.417,1.417,0,0,0,.841.674,1.33,1.33,0,0,0,.368.052,1.306,1.306,0,0,0,.611-.152,1.371,1.371,0,0,0,.668-1.762Zm-15.655-.891L974.3,71.612l6.07,12.138Z" transform="translate(-772.004 -53.934)"></path><path d="M1119.409,81.877l-.231-.942-.306-.887-.395-.925-.064-.065-.385-.675-.484-.652v-.059l-.612-.688V76.94l-.191-.17-.162-.177h-.038l-.738-.649h-.059l-.456-.335-.065-.065-.523-.3v-.07l-1.088-.467a.71.71,0,0,0-.278-.117l-.757-.263-.909-.2-.885-.118-.919-.043-.823.038-.886.113-.949.242-.737.235a.724.724,0,0,0-.311.144l-.551.237-.818.468h-.048l-.732.54h-.071l-.649.612h-.071l-.249.281V68.689a1.3,1.3,0,0,0-1.345-1.345,1.333,1.333,0,0,0-1.381,1.345V91.9a1.281,1.281,0,0,0,1.381,1.381,1.334,1.334,0,0,0,1.345-1.381V90.34L1104,91.3h.058l.5.368.2.172h.094l.554.332.933.433.888.312.95.2.88.117.776.041h.122l.807-.037.887-.113.943-.231.887-.305.926-.4.065-.065.672-.384.652-.484h.059l1.08-.96V90.25l.648-.725v-.058l.343-.465a.749.749,0,0,0,.155-.256l.342-.569a.718.718,0,0,0,.144-.281l.322-.708.312-.888.2-.95.117-.88.043-.882-.038-.823Zm-3.067,4.258-.3.66-.355.615-.425.556-.461.56-.54.445-.576.441-.613.355-.587.261-.663.232-.659.165-.617.1-.645.032-.576-.032-.621-.1-.672-.135-.646-.226-.66-.3-.615-.355-.556-.425-.56-.461-.445-.54-.437-.572-.321-.576-.335-.671-.187-.59-.172-.69-.1-.618-.034-.607.034-.616.1-.647.136-.645.226-.678.294-.62.359-.621.425-.557.461-.56.539-.445.577-.441.62-.359.615-.291.6-.19.69-.172.617-.1.611-.032.614.032.646.1.644.136.678.226.62.293.629.364.593.428.508.445.452.548.441.577.353.607.3.594.19.63.172.69.1.618.032.611-.032.614-.1.646-.135.639Z" transform="translate(-883.564 -54.081)"></path><path d="M1224.072,101.471l-1.245-.664h-.05l-.048-.014-.675-.239v-.1l-1.72-.322-1.257-.084-.995.036-1.046.147a.73.73,0,0,0-.308.094l-.686.192h-.122l-.9.4h-.114l-.931.543a.738.738,0,0,0-.234.132V101.4a1.381,1.381,0,0,0-2.762,0v16.59a1.381,1.381,0,1,0,2.762,0V105.22l.274-.317.588-.555.682-.488.716-.39.762-.3.761-.232.742-.129.707-.032.921.066.95.2.918.328.983.508a1.382,1.382,0,0,0,1.151.1,1.245,1.245,0,0,0,.722-.707,1.342,1.342,0,0,0-.548-1.8" transform="translate(-972.492 -80.348)"></path><path d="M1300.866,108.691l-.19-.886-.308-.935-.392-.835-.436-.71a.717.717,0,0,0-.2-.325l-.359-.487a.746.746,0,0,0-.166-.239l-.423-.449v-.071l-.849-.752-.8-.611-.2-.172h-.095l-.554-.332-.834-.37-.137-.125h-.17l-.716-.249-.909-.2-.886-.118-.881-.043-.859.037-.888.113-.958.246-.688.229a.714.714,0,0,0-.284.118l-.618.265-.818.468h-.048l-.868.64-.967.86v.056l-.406.446-.782,1.021v.057l-.268.487a.7.7,0,0,0-.172.3l-.33.758-.307.877-.234.923-.123.867-.043.923.038.822.159.945.18.828.308.935.392.835.645,1.188h.073l.322.438.548.585v.07l.849.752.8.611.2.172h.1l.554.332.98.438.877.307.908.2.886.118.813.041h.084l.843-.036.888-.113.913-.233.88-.3.754-.321.818-.468h.048l.868-.639.967-.86v-.056l.408-.448a.812.812,0,0,0,.179-.253l.341-.463a.7.7,0,0,0,.211-.3l.42-.71.4-.9.307-.878.232-.88.125-.914.043-.934-.079-.866Zm-16.145,3.669-.161-.642-.064-.6-.034-.648.032-.614.066-.665.362-1.283.291-.645.356-.614.426-.557.494-.56.517-.453.6-.433.587-.359.648-.291.589-.2.661-.166.653-.1.614-.033.611.033.619.1.672.135.646.226.652.293.587.359.6.433.518.453.494.56.417.545.63,1.227.222.632.129.644.1.648.032.612-.031.614-.066.665-.361,1.277-.282.6-.37.674-.421.551-.494.56-.518.453-.6.433-.58.355-.606.256-.648.239-.651.162-.653.1-.648.033-.575-.032-.621-.1-.672-.134-.645-.226-.653-.293-.587-.359-.6-.433-.517-.453-.494-.56-.426-.557-.355-.613-.261-.588Z" transform="translate(-1029.284 -80.931)"></path><path d="M1404.38,100.779A1.35,1.35,0,0,0,1403,102.16v1.5l-.585-.487V103.1l-.756-.557V102.5l-.234-.128-.169-.119-.613-.311a.707.707,0,0,0-.259-.132l-.631-.3-.041-.041-1.021-.31-.828-.216-.913-.125-.882-.043-.858.037-.945.16-.828.18-.828.272-.821.387a.716.716,0,0,0-.261.132l-.562.309h-.057l-1.151.849v.068l-.684.57v.072l-.26.313h-.079l-.848,1.156v.051l-.309.562a.716.716,0,0,0-.13.251l-.352.7-.3,1-.216.828-.125.913-.043.881.038.859.159.945.18.828.311.909.443.934.4.719.788,1.117h.09l.424.476.687.615.764.582a.737.737,0,0,0,.258.156l.612.367.155.142h.142l.694.3.878.307.937.208.828.144.875.01.894-.036.888-.114.886-.19.908-.311.76-.357.134-.061.023-.014.665-.4a.747.747,0,0,0,.257-.156l.561-.413a.7.7,0,0,0,.277-.234l.578-.515.1-.109v1.563a1.381,1.381,0,0,0,2.762,0V102.16a1.351,1.351,0,0,0-1.381-1.381m-1.84,12.18-.292.65-.36.622-.421.584-.477.511-.534.5-.577.385-.616.377-.617.292-.643.225-.6.127-.686.1-.649.033-.577-.032-.635-.066-.641-.161-.661-.231-.653-.293-.587-.358-.6-.4-.5-.468-.509-.543-.418-.579-.319-.571-.308-.65-.231-.659-.159-.6-.064-.631-.034-.648.031-.61.067-.636.159-.64.2-.676.287-.638.359-.588.426-.59.478-.512.543-.509.59-.426.575-.351,1.266-.5.628-.157.635-.064.647-.035h.63l.6.094.659.165.661.231.665.266.575.351.59.427.511.477.509.544.418.579.319.571.311.656.223.6.128.639.1.648.033.611-.032.614-.067.67-.156.629Z" transform="translate(-1113.372 -80.931)"></path><path d="M1512.159,66.429a1.351,1.351,0,0,0-1.381,1.381v8.166a.7.7,0,0,0-.226-.2l-.359-.319v-.08l-1.157-.848h-.051l-.563-.309a.712.712,0,0,0-.26-.132l-.631-.3-.041-.041-1.021-.31-.828-.216-.913-.125-.881-.043-.859.037-.946.159-.828.18-.828.272-.821.387a.71.71,0,0,0-.259.131l-.655.36-1.117.788v.09l-.359.319a.7.7,0,0,0-.267.268l-.462.522-.588.77a.744.744,0,0,0-.153.255l-.366.611-.144.154V78.5l-.3.695-.307.876-.2.909-.118.886-.043.881.037.859.113.888.19.886.311.909.425.9.406.682a.742.742,0,0,0,.153.255l.415.563a.7.7,0,0,0,.233.277l.509.571.69.618.8.58.806.5a.817.817,0,0,0,.249.127l.772.336.877.307.88.232.914.125.813.041h.089l.9-.078.828-.108.886-.19.908-.311.741-.348a.716.716,0,0,0,.273-.143l.567-.34a.751.751,0,0,0,.257-.156l.561-.413a.7.7,0,0,0,.277-.233l.578-.515.1-.109v1.563a1.381,1.381,0,0,0,2.762,0V67.81a1.351,1.351,0,0,0-1.381-1.381m-1.842,18.807-.29.678-.356.582-.427.591-.477.511-.544.509-.579.418-.57.319-.656.31-.6.223-.639.128-.647.1-.646.032-.58-.031-.67-.067-.629-.157-.638-.2-.672-.319-.612-.34-.579-.418-.511-.478-.5-.533-.385-.577-.377-.616-.294-.622-.223-.6-.127-.632-.1-.687-.033-.614.032-.611.066-.635.161-.641.231-.661.293-.652.358-.587.4-.6.469-.5.543-.509.59-.426.574-.351,1.3-.5.6-.158.631-.064.648-.034.611.031.635.066.646.162.705.235.611.257.58.354.591.427.511.477.509.543.426.59.354.581.256.605.239.648.158.635.064.638.036.645v.629l-.095.6-.161.648Z" transform="translate(-1199.954 -53.347)"></path></g><g transform="translate(0 0)"><g class="c"><rect class="d" width="56.286" height="77.261" transform="translate(-9.375 38.858) rotate(-76.436)"></rect></g></g><g transform="translate(0.149 26.255)"><g class="e"><rect class="f" width="28.33" height="71.097" transform="translate(-2.871 15.082) rotate(-79.223)"></rect></g></g><g transform="translate(1.125 38.231)"><g class="g"><rect class="h" width="23.815" height="74.637" transform="translate(-1.89 13.504) rotate(-82.032)"></rect></g></g><g class="b"><g class="i" transform="translate(0)"><g class="j"><path class="k" d="M69.557,0,0,41.12a65.891,65.891,0,0,1,9.723-3.734L67.582,3.327Z" transform="translate(0)"></path></g></g><g class="i" transform="translate(0.149 26.255)"><g class="l"><path class="k" d="M70.155,133.642c-19.766-2.969-69.4,15.3-69.4,15.3,3.429-.924,6.919-1.689,10.413-2.321,15.744-5.094,44.115-13.686,58.438-11.828Z" transform="translate(-0.757 -133.316)"></path></g></g><g class="i" transform="translate(1.125 38.231)"><g class="m"><path class="k" d="M78.754,197.661l.4-.892c-21.383-6.7-73.437,1.462-73.437,1.462a47.405,47.405,0,0,1,5.767.278c13.837-1.853,49.917-5.936,67.274-.848" transform="translate(-5.713 -194.128)"></path></g></g></g></g></svg>