<svg xmlns="http://www.w3.org/2000/svg" width="19.057" height="23.322" viewBox="0 0 19.057 23.322"><defs><style>.a {
  fill: none;
  stroke: #2680ea;
  stroke-linecap: round;
  stroke-linejoin: round;
  stroke-width: 2px;
}
</style></defs><path class="a" d="M14.661,2.287v4.4a2.648,2.648,0,0,0,.116,1.124,1.066,1.066,0,0,0,.466.466,2.649,2.649,0,0,0,1.124.116h4.4m-6.109,9.595h-6.4m8.529-4.264H8.264m12.793-3.211V18.2c0,1.791,0,2.687-.349,3.371a3.2,3.2,0,0,1-1.4,1.4c-.684.349-1.58.349-3.371.349H9.117c-1.791,0-2.687,0-3.371-.349a3.2,3.2,0,0,1-1.4-1.4C4,20.891,4,20,4,18.2V7.117c0-1.791,0-2.687.349-3.371a3.2,3.2,0,0,1,1.4-1.4C6.43,2,7.326,2,9.117,2h3.424a6.843,6.843,0,0,1,1.541.088,3.2,3.2,0,0,1,.925.383A6.847,6.847,0,0,1,16.16,3.5l3.4,3.4A6.839,6.839,0,0,1,20.586,8.05a3.2,3.2,0,0,1,.383.924A6.842,6.842,0,0,1,21.057,10.516Z" transform="translate(-3 -1)"></path></svg>