<svg xmlns="http://www.w3.org/2000/svg" width="22.624" height="22.596" viewBox="0 0 22.624 22.596"><defs><style>.a {
  fill: none;
  stroke: #2680ea;
  stroke-linecap: round;
  stroke-linejoin: round;
  stroke-width: 2px;
}
</style></defs><path class="a" d="M5.292,9.871v9.166m5.156-9.166v9.166m5.729-9.166v9.166m5.156-9.166v9.166M3,20.871v.917A2.847,2.847,0,0,0,3.125,23a1.145,1.145,0,0,0,.5.5,2.846,2.846,0,0,0,1.208.125H21.791A2.846,2.846,0,0,0,23,23.5a1.145,1.145,0,0,0,.5-.5,2.846,2.846,0,0,0,.125-1.208v-.917a2.847,2.847,0,0,0-.125-1.208,1.146,1.146,0,0,0-.5-.5,2.846,2.846,0,0,0-1.208-.125H4.833a2.846,2.846,0,0,0-1.208.125,1.146,1.146,0,0,0-.5.5A2.847,2.847,0,0,0,3,20.871ZM12.914,3.085,4.436,4.969a2.685,2.685,0,0,0-.96.308,1.146,1.146,0,0,0-.383.478,2.685,2.685,0,0,0-.093,1V8.038a2.847,2.847,0,0,0,.125,1.208,1.146,1.146,0,0,0,.5.5,2.847,2.847,0,0,0,1.208.125H21.791A2.846,2.846,0,0,0,23,9.746a1.146,1.146,0,0,0,.5-.5,2.846,2.846,0,0,0,.125-1.208V6.759a2.684,2.684,0,0,0-.093-1,1.145,1.145,0,0,0-.383-.478,2.684,2.684,0,0,0-.959-.308L13.71,3.085a2.387,2.387,0,0,0-.3-.056,1.146,1.146,0,0,0-.2,0A2.387,2.387,0,0,0,12.914,3.085Z" transform="translate(-2 -2.024)"></path></svg>