<svg xmlns="http://www.w3.org/2000/svg" width="21.185" height="21.503" viewBox="0 0 21.185 21.503"><defs><style>.a {
  fill: none;
  stroke: #2680ea;
  stroke-linecap: round;
  stroke-linejoin: round;
  stroke-width: 2px;
}
</style></defs><path class="a" d="M6.072,21.124l5.509-9.542m4.791-8.3A9.584,9.584,0,0,0,4.152,5.529a1.724,1.724,0,0,0-.468.776,1.051,1.051,0,0,0,.118.639c.128.22.355.351.81.613l13.94,8.048a2.052,2.052,0,0,0,.936.395,1.052,1.052,0,0,0,.612-.217,1.724,1.724,0,0,0,.438-.794A9.584,9.584,0,0,0,16.372,3.284Zm0,0c-1.833-1.058-5.464,1.8-8.11,6.381m8.11-6.381C18.2,4.342,17.546,8.915,14.9,13.5m6.262,7.665H2" transform="translate(-1 -0.986)"></path></svg>