<svg xmlns="http://www.w3.org/2000/svg" width="18.748" height="18.748" viewBox="0 0 18.748 18.748"><defs><style>.a {
  fill: none;
  stroke: #2680ea;
  stroke-linecap: round;
  stroke-linejoin: round;
  stroke-width: 2px;
}
</style></defs><path class="a" d="M19.748,19.748H4.489a2.311,2.311,0,0,1-.981-.1A.93.93,0,0,1,3.1,19.24a2.312,2.312,0,0,1-.1-.981V3M18.818,7.652l-3.646,3.892a1.077,1.077,0,0,1-.291.259.465.465,0,0,1-.235.04,1.079,1.079,0,0,1-.36-.148l-3.031-1.574a1.079,1.079,0,0,0-.36-.148.465.465,0,0,0-.235.04,1.077,1.077,0,0,0-.291.259L6.722,14.165" transform="translate(-2 -2)"></path></svg>